%TF.GenerationSoftware,KiCad,Pcbnew,8.0.2-8.0.2-0~ubuntu22.04.1*%
%TF.CreationDate,2024-06-03T20:12:09+08:00*%
%TF.ProjectId,pcb-stm32,7063622d-7374-46d3-9332-2e6b69636164,rev?*%
%TF.SameCoordinates,Original*%
%TF.FileFunction,Legend,Bot*%
%TF.FilePolarity,Positive*%
%FSLAX46Y46*%
G04 Gerber Fmt 4.6, Leading zero omitted, Abs format (unit mm)*
G04 Created by KiCad (PCBNEW 8.0.2-8.0.2-0~ubuntu22.04.1) date 2024-06-03 20:12:09*
%MOMM*%
%LPD*%
G01*
G04 APERTURE LIST*
%ADD10C,0.100000*%
%ADD11C,0.150000*%
%ADD12C,0.120000*%
%ADD13C,0.000000*%
G04 APERTURE END LIST*
D10*
X118900000Y-95200000D02*
X118900000Y-94700000D01*
X122300000Y-91800000D02*
X122300000Y-92300000D01*
X118900000Y-95200000D02*
X119400000Y-95200000D01*
X122300000Y-91800000D02*
X121800000Y-91800000D01*
X122300000Y-95200000D02*
X122300000Y-94700000D01*
X122300000Y-95200000D02*
X121800000Y-95200000D01*
X118900000Y-91800000D02*
X118900000Y-92300000D01*
X118900000Y-91800000D02*
X119400000Y-91800000D01*
D11*
X117482268Y-95594295D02*
X117482268Y-96165723D01*
X117482268Y-96165723D02*
X117520363Y-96280009D01*
X117520363Y-96280009D02*
X117596554Y-96356200D01*
X117596554Y-96356200D02*
X117710839Y-96394295D01*
X117710839Y-96394295D02*
X117787030Y-96394295D01*
X116720363Y-96394295D02*
X117101315Y-96394295D01*
X117101315Y-96394295D02*
X117101315Y-95594295D01*
X115996553Y-96318104D02*
X116034649Y-96356200D01*
X116034649Y-96356200D02*
X116148934Y-96394295D01*
X116148934Y-96394295D02*
X116225125Y-96394295D01*
X116225125Y-96394295D02*
X116339411Y-96356200D01*
X116339411Y-96356200D02*
X116415601Y-96280009D01*
X116415601Y-96280009D02*
X116453696Y-96203819D01*
X116453696Y-96203819D02*
X116491792Y-96051438D01*
X116491792Y-96051438D02*
X116491792Y-95937152D01*
X116491792Y-95937152D02*
X116453696Y-95784771D01*
X116453696Y-95784771D02*
X116415601Y-95708580D01*
X116415601Y-95708580D02*
X116339411Y-95632390D01*
X116339411Y-95632390D02*
X116225125Y-95594295D01*
X116225125Y-95594295D02*
X116148934Y-95594295D01*
X116148934Y-95594295D02*
X116034649Y-95632390D01*
X116034649Y-95632390D02*
X115996553Y-95670485D01*
X115425125Y-95594295D02*
X115425125Y-96165723D01*
X115425125Y-96165723D02*
X115463220Y-96280009D01*
X115463220Y-96280009D02*
X115539411Y-96356200D01*
X115539411Y-96356200D02*
X115653696Y-96394295D01*
X115653696Y-96394295D02*
X115729887Y-96394295D01*
X114663220Y-96394295D02*
X115044172Y-96394295D01*
X115044172Y-96394295D02*
X115044172Y-95594295D01*
X113939410Y-96318104D02*
X113977506Y-96356200D01*
X113977506Y-96356200D02*
X114091791Y-96394295D01*
X114091791Y-96394295D02*
X114167982Y-96394295D01*
X114167982Y-96394295D02*
X114282268Y-96356200D01*
X114282268Y-96356200D02*
X114358458Y-96280009D01*
X114358458Y-96280009D02*
X114396553Y-96203819D01*
X114396553Y-96203819D02*
X114434649Y-96051438D01*
X114434649Y-96051438D02*
X114434649Y-95937152D01*
X114434649Y-95937152D02*
X114396553Y-95784771D01*
X114396553Y-95784771D02*
X114358458Y-95708580D01*
X114358458Y-95708580D02*
X114282268Y-95632390D01*
X114282268Y-95632390D02*
X114167982Y-95594295D01*
X114167982Y-95594295D02*
X114091791Y-95594295D01*
X114091791Y-95594295D02*
X113977506Y-95632390D01*
X113977506Y-95632390D02*
X113939410Y-95670485D01*
X113367982Y-95594295D02*
X113367982Y-96165723D01*
X113367982Y-96165723D02*
X113406077Y-96280009D01*
X113406077Y-96280009D02*
X113482268Y-96356200D01*
X113482268Y-96356200D02*
X113596553Y-96394295D01*
X113596553Y-96394295D02*
X113672744Y-96394295D01*
X112606077Y-96394295D02*
X112987029Y-96394295D01*
X112987029Y-96394295D02*
X112987029Y-95594295D01*
X111882267Y-96318104D02*
X111920363Y-96356200D01*
X111920363Y-96356200D02*
X112034648Y-96394295D01*
X112034648Y-96394295D02*
X112110839Y-96394295D01*
X112110839Y-96394295D02*
X112225125Y-96356200D01*
X112225125Y-96356200D02*
X112301315Y-96280009D01*
X112301315Y-96280009D02*
X112339410Y-96203819D01*
X112339410Y-96203819D02*
X112377506Y-96051438D01*
X112377506Y-96051438D02*
X112377506Y-95937152D01*
X112377506Y-95937152D02*
X112339410Y-95784771D01*
X112339410Y-95784771D02*
X112301315Y-95708580D01*
X112301315Y-95708580D02*
X112225125Y-95632390D01*
X112225125Y-95632390D02*
X112110839Y-95594295D01*
X112110839Y-95594295D02*
X112034648Y-95594295D01*
X112034648Y-95594295D02*
X111920363Y-95632390D01*
X111920363Y-95632390D02*
X111882267Y-95670485D01*
X111310839Y-95594295D02*
X111310839Y-96165723D01*
X111310839Y-96165723D02*
X111348934Y-96280009D01*
X111348934Y-96280009D02*
X111425125Y-96356200D01*
X111425125Y-96356200D02*
X111539410Y-96394295D01*
X111539410Y-96394295D02*
X111615601Y-96394295D01*
X110548934Y-96394295D02*
X110929886Y-96394295D01*
X110929886Y-96394295D02*
X110929886Y-95594295D01*
X109825124Y-96318104D02*
X109863220Y-96356200D01*
X109863220Y-96356200D02*
X109977505Y-96394295D01*
X109977505Y-96394295D02*
X110053696Y-96394295D01*
X110053696Y-96394295D02*
X110167982Y-96356200D01*
X110167982Y-96356200D02*
X110244172Y-96280009D01*
X110244172Y-96280009D02*
X110282267Y-96203819D01*
X110282267Y-96203819D02*
X110320363Y-96051438D01*
X110320363Y-96051438D02*
X110320363Y-95937152D01*
X110320363Y-95937152D02*
X110282267Y-95784771D01*
X110282267Y-95784771D02*
X110244172Y-95708580D01*
X110244172Y-95708580D02*
X110167982Y-95632390D01*
X110167982Y-95632390D02*
X110053696Y-95594295D01*
X110053696Y-95594295D02*
X109977505Y-95594295D01*
X109977505Y-95594295D02*
X109863220Y-95632390D01*
X109863220Y-95632390D02*
X109825124Y-95670485D01*
X123210839Y-96394295D02*
X123210839Y-95594295D01*
X123210839Y-95594295D02*
X122906077Y-95594295D01*
X122906077Y-95594295D02*
X122829887Y-95632390D01*
X122829887Y-95632390D02*
X122791792Y-95670485D01*
X122791792Y-95670485D02*
X122753696Y-95746676D01*
X122753696Y-95746676D02*
X122753696Y-95860961D01*
X122753696Y-95860961D02*
X122791792Y-95937152D01*
X122791792Y-95937152D02*
X122829887Y-95975247D01*
X122829887Y-95975247D02*
X122906077Y-96013342D01*
X122906077Y-96013342D02*
X123210839Y-96013342D01*
X122448935Y-96165723D02*
X122067982Y-96165723D01*
X122525125Y-96394295D02*
X122258458Y-95594295D01*
X122258458Y-95594295D02*
X121991792Y-96394295D01*
X121801316Y-95594295D02*
X121306078Y-95594295D01*
X121306078Y-95594295D02*
X121572744Y-95899057D01*
X121572744Y-95899057D02*
X121458459Y-95899057D01*
X121458459Y-95899057D02*
X121382268Y-95937152D01*
X121382268Y-95937152D02*
X121344173Y-95975247D01*
X121344173Y-95975247D02*
X121306078Y-96051438D01*
X121306078Y-96051438D02*
X121306078Y-96241914D01*
X121306078Y-96241914D02*
X121344173Y-96318104D01*
X121344173Y-96318104D02*
X121382268Y-96356200D01*
X121382268Y-96356200D02*
X121458459Y-96394295D01*
X121458459Y-96394295D02*
X121687030Y-96394295D01*
X121687030Y-96394295D02*
X121763221Y-96356200D01*
X121763221Y-96356200D02*
X121801316Y-96318104D01*
X120925125Y-96356200D02*
X120925125Y-96394295D01*
X120925125Y-96394295D02*
X120963220Y-96470485D01*
X120963220Y-96470485D02*
X121001316Y-96508580D01*
X120010840Y-96356200D02*
X119896554Y-96394295D01*
X119896554Y-96394295D02*
X119706078Y-96394295D01*
X119706078Y-96394295D02*
X119629887Y-96356200D01*
X119629887Y-96356200D02*
X119591792Y-96318104D01*
X119591792Y-96318104D02*
X119553697Y-96241914D01*
X119553697Y-96241914D02*
X119553697Y-96165723D01*
X119553697Y-96165723D02*
X119591792Y-96089533D01*
X119591792Y-96089533D02*
X119629887Y-96051438D01*
X119629887Y-96051438D02*
X119706078Y-96013342D01*
X119706078Y-96013342D02*
X119858459Y-95975247D01*
X119858459Y-95975247D02*
X119934649Y-95937152D01*
X119934649Y-95937152D02*
X119972744Y-95899057D01*
X119972744Y-95899057D02*
X120010840Y-95822866D01*
X120010840Y-95822866D02*
X120010840Y-95746676D01*
X120010840Y-95746676D02*
X119972744Y-95670485D01*
X119972744Y-95670485D02*
X119934649Y-95632390D01*
X119934649Y-95632390D02*
X119858459Y-95594295D01*
X119858459Y-95594295D02*
X119667982Y-95594295D01*
X119667982Y-95594295D02*
X119553697Y-95632390D01*
X119210839Y-96394295D02*
X119210839Y-95594295D01*
X119210839Y-95594295D02*
X118753696Y-96394295D01*
X118753696Y-96394295D02*
X118753696Y-95594295D01*
X118372744Y-96318104D02*
X118334649Y-96356200D01*
X118334649Y-96356200D02*
X118372744Y-96394295D01*
X118372744Y-96394295D02*
X118410840Y-96356200D01*
X118410840Y-96356200D02*
X118372744Y-96318104D01*
X118372744Y-96318104D02*
X118372744Y-96394295D01*
X118372744Y-95899057D02*
X118334649Y-95937152D01*
X118334649Y-95937152D02*
X118372744Y-95975247D01*
X118372744Y-95975247D02*
X118410840Y-95937152D01*
X118410840Y-95937152D02*
X118372744Y-95899057D01*
X118372744Y-95899057D02*
X118372744Y-95975247D01*
D12*
%TO.C,R9*%
X112227500Y-72562742D02*
X112227500Y-73037258D01*
X113272500Y-72562742D02*
X113272500Y-73037258D01*
%TO.C,C6*%
X115209420Y-80890000D02*
X115490580Y-80890000D01*
X115209420Y-81910000D02*
X115490580Y-81910000D01*
%TO.C,C8*%
X115690000Y-79140580D02*
X115690000Y-78859420D01*
X116710000Y-79140580D02*
X116710000Y-78859420D01*
%TO.C,R10*%
X139337258Y-95177500D02*
X138862742Y-95177500D01*
X139337258Y-96222500D02*
X138862742Y-96222500D01*
%TO.C,R6*%
X108062742Y-78977500D02*
X108537258Y-78977500D01*
X108062742Y-80022500D02*
X108537258Y-80022500D01*
%TO.C,R5*%
X113827500Y-73037258D02*
X113827500Y-72562742D01*
X114872500Y-73037258D02*
X114872500Y-72562742D01*
%TO.C,R8*%
X110602500Y-72562742D02*
X110602500Y-73037258D01*
X111647500Y-72562742D02*
X111647500Y-73037258D01*
%TO.C,U1*%
X110415000Y-74965000D02*
X110415000Y-75440000D01*
X110415000Y-79185000D02*
X110415000Y-78710000D01*
X110890000Y-74965000D02*
X110415000Y-74965000D01*
X110890000Y-79185000D02*
X110415000Y-79185000D01*
X114160000Y-74965000D02*
X114635000Y-74965000D01*
X114395000Y-79185000D02*
X114160000Y-79185000D01*
X114635000Y-74965000D02*
X114635000Y-75440000D01*
X114635000Y-78885000D02*
X114635000Y-78710000D01*
X114965000Y-79425000D02*
X114635000Y-79185000D01*
X114965000Y-78945000D01*
X114965000Y-79425000D01*
G36*
X114965000Y-79425000D02*
G01*
X114635000Y-79185000D01*
X114965000Y-78945000D01*
X114965000Y-79425000D01*
G37*
%TO.C,R7*%
X108577500Y-76537258D02*
X108577500Y-76062742D01*
X109622500Y-76537258D02*
X109622500Y-76062742D01*
%TO.C,C7*%
X116859420Y-76190000D02*
X117140580Y-76190000D01*
X116859420Y-77210000D02*
X117140580Y-77210000D01*
D13*
%TO.C,G\u002A\u002A\u002A*%
G36*
X121532557Y-94134844D02*
G01*
X121532226Y-94139599D01*
X121530095Y-94140997D01*
X121529166Y-94139338D01*
X121529725Y-94132011D01*
X121531412Y-94129841D01*
X121532557Y-94134844D01*
G37*
G36*
X119312935Y-93214821D02*
G01*
X119315467Y-93221060D01*
X119314938Y-93224294D01*
X119310779Y-93228092D01*
X119308622Y-93227298D01*
X119306091Y-93221060D01*
X119306620Y-93217825D01*
X119310779Y-93214027D01*
X119312935Y-93214821D01*
G37*
G36*
X120849749Y-92614628D02*
G01*
X120850812Y-92618642D01*
X120849852Y-92619922D01*
X120843503Y-92623330D01*
X120842457Y-92623196D01*
X120839092Y-92618642D01*
X120839986Y-92616401D01*
X120846401Y-92613954D01*
X120849749Y-92614628D01*
G37*
G36*
X120881285Y-92600036D02*
G01*
X120880492Y-92602124D01*
X120874252Y-92604577D01*
X120871049Y-92604374D01*
X120867220Y-92602735D01*
X120868084Y-92601522D01*
X120874252Y-92598194D01*
X120877848Y-92597457D01*
X120881285Y-92600036D01*
G37*
G36*
X121548315Y-94114272D02*
G01*
X121551680Y-94118826D01*
X121550785Y-94121067D01*
X121544371Y-94123514D01*
X121541022Y-94122840D01*
X121539959Y-94118826D01*
X121540919Y-94117546D01*
X121547268Y-94114138D01*
X121548315Y-94114272D01*
G37*
G36*
X120827524Y-92644246D02*
G01*
X120821784Y-92655142D01*
X120819669Y-92658602D01*
X120812754Y-92666179D01*
X120808026Y-92665228D01*
X120806275Y-92655719D01*
X120808378Y-92649234D01*
X120816823Y-92642477D01*
X120821596Y-92640764D01*
X120827633Y-92639893D01*
X120827524Y-92644246D01*
G37*
G36*
X119474862Y-92664174D02*
G01*
X119474768Y-92664653D01*
X119470541Y-92670202D01*
X119461969Y-92678070D01*
X119455763Y-92682538D01*
X119444529Y-92687778D01*
X119436033Y-92688367D01*
X119432669Y-92683836D01*
X119434287Y-92680496D01*
X119441721Y-92676342D01*
X119447030Y-92674004D01*
X119453294Y-92667404D01*
X119456133Y-92664181D01*
X119463671Y-92661214D01*
X119471347Y-92660997D01*
X119474862Y-92664174D01*
G37*
G36*
X120816377Y-93169353D02*
G01*
X120823422Y-93180656D01*
X120826975Y-93187133D01*
X120831524Y-93198245D01*
X120832007Y-93204737D01*
X120828193Y-93207483D01*
X120822867Y-93204944D01*
X120820340Y-93197342D01*
X120819623Y-93194323D01*
X120813584Y-93190587D01*
X120807592Y-93189299D01*
X120803446Y-93182541D01*
X120806525Y-93171367D01*
X120808972Y-93167168D01*
X120812167Y-93165191D01*
X120816377Y-93169353D01*
G37*
G36*
X119717159Y-92642248D02*
G01*
X119734337Y-92642807D01*
X119744814Y-92644015D01*
X119750038Y-92646057D01*
X119751458Y-92649114D01*
X119751396Y-92649871D01*
X119749348Y-92652537D01*
X119743396Y-92654345D01*
X119732174Y-92655447D01*
X119714313Y-92655997D01*
X119688446Y-92656146D01*
X119682600Y-92656128D01*
X119659924Y-92655703D01*
X119641206Y-92654795D01*
X119628251Y-92653519D01*
X119622865Y-92651991D01*
X119622974Y-92648627D01*
X119629503Y-92645696D01*
X119643492Y-92643695D01*
X119665572Y-92642540D01*
X119696373Y-92642146D01*
X119717159Y-92642248D01*
G37*
G36*
X121537181Y-92543958D02*
G01*
X121561520Y-92544837D01*
X121578127Y-92546288D01*
X121586593Y-92548254D01*
X121586509Y-92550676D01*
X121577464Y-92553497D01*
X121576828Y-92553629D01*
X121565377Y-92554969D01*
X121547758Y-92556003D01*
X121526192Y-92556711D01*
X121502898Y-92557075D01*
X121480094Y-92557074D01*
X121459999Y-92556691D01*
X121444832Y-92555906D01*
X121436812Y-92554700D01*
X121434146Y-92553544D01*
X121431295Y-92550131D01*
X121437487Y-92547404D01*
X121452483Y-92545399D01*
X121476044Y-92544154D01*
X121507931Y-92543704D01*
X121537181Y-92543958D01*
G37*
G36*
X120176894Y-92609954D02*
G01*
X120192651Y-92611418D01*
X120201382Y-92613773D01*
X120204494Y-92616254D01*
X120204418Y-92618741D01*
X120198994Y-92620726D01*
X120187214Y-92622404D01*
X120168074Y-92623972D01*
X120140568Y-92625626D01*
X120123352Y-92626790D01*
X120097491Y-92629206D01*
X120073922Y-92632119D01*
X120056183Y-92635130D01*
X120040919Y-92637526D01*
X120020182Y-92639248D01*
X119997603Y-92640008D01*
X119975419Y-92639829D01*
X119955866Y-92638733D01*
X119941179Y-92636743D01*
X119933595Y-92633883D01*
X119934410Y-92632142D01*
X119943440Y-92629910D01*
X119961254Y-92627842D01*
X119987513Y-92625989D01*
X120010626Y-92624288D01*
X120034538Y-92621769D01*
X120054676Y-92618877D01*
X120068242Y-92615961D01*
X120073350Y-92614697D01*
X120089680Y-92612267D01*
X120110504Y-92610540D01*
X120133516Y-92609553D01*
X120156414Y-92609345D01*
X120176894Y-92609954D01*
G37*
G36*
X121168549Y-92560367D02*
G01*
X121187759Y-92560967D01*
X121201331Y-92562019D01*
X121207461Y-92563557D01*
X121209418Y-92566910D01*
X121206914Y-92569854D01*
X121198687Y-92572219D01*
X121183824Y-92574170D01*
X121161411Y-92575872D01*
X121130536Y-92577490D01*
X121118220Y-92578103D01*
X121091487Y-92579728D01*
X121067370Y-92581570D01*
X121048121Y-92583448D01*
X121035991Y-92585178D01*
X121023307Y-92586921D01*
X121005228Y-92588145D01*
X120984376Y-92588752D01*
X120962774Y-92588769D01*
X120942444Y-92588224D01*
X120925410Y-92587142D01*
X120913695Y-92585552D01*
X120909321Y-92583481D01*
X120913207Y-92581471D01*
X120925011Y-92579280D01*
X120943220Y-92577246D01*
X120966303Y-92575582D01*
X120982788Y-92574498D01*
X121005476Y-92572257D01*
X121020422Y-92569638D01*
X121026810Y-92566757D01*
X121027669Y-92566167D01*
X121035859Y-92564491D01*
X121051034Y-92563044D01*
X121071389Y-92561859D01*
X121095121Y-92560966D01*
X121120427Y-92560399D01*
X121145504Y-92560189D01*
X121168549Y-92560367D01*
G37*
G36*
X119393995Y-92726531D02*
G01*
X119399198Y-92730389D01*
X119398370Y-92738413D01*
X119391648Y-92748068D01*
X119390192Y-92749842D01*
X119388630Y-92753085D01*
X119387328Y-92758174D01*
X119386262Y-92765863D01*
X119385410Y-92776904D01*
X119384748Y-92792051D01*
X119384252Y-92812057D01*
X119383898Y-92837674D01*
X119383664Y-92869655D01*
X119383526Y-92908753D01*
X119383461Y-92955722D01*
X119383444Y-93011314D01*
X119383455Y-93059212D01*
X119383510Y-93107360D01*
X119383633Y-93147513D01*
X119383846Y-93180420D01*
X119384175Y-93206825D01*
X119384641Y-93227477D01*
X119385268Y-93243121D01*
X119386081Y-93254504D01*
X119387101Y-93262372D01*
X119388354Y-93267472D01*
X119389862Y-93270550D01*
X119391648Y-93272352D01*
X119396357Y-93277197D01*
X119399852Y-93286037D01*
X119399750Y-93287977D01*
X119396439Y-93293245D01*
X119389462Y-93291127D01*
X119380187Y-93281909D01*
X119379186Y-93280590D01*
X119377334Y-93277571D01*
X119375784Y-93273563D01*
X119374508Y-93267803D01*
X119373484Y-93259531D01*
X119372685Y-93247981D01*
X119372088Y-93232394D01*
X119371666Y-93212004D01*
X119371394Y-93186052D01*
X119371249Y-93153773D01*
X119371205Y-93114405D01*
X119371236Y-93067186D01*
X119371318Y-93011354D01*
X119371321Y-93009608D01*
X119371441Y-92953323D01*
X119371611Y-92905682D01*
X119371853Y-92865977D01*
X119372187Y-92833494D01*
X119372631Y-92807525D01*
X119373207Y-92787358D01*
X119373935Y-92772283D01*
X119374834Y-92761589D01*
X119375926Y-92754564D01*
X119377229Y-92750500D01*
X119378765Y-92748684D01*
X119382527Y-92745146D01*
X119385788Y-92735611D01*
X119387074Y-92730355D01*
X119392820Y-92726467D01*
X119393995Y-92726531D01*
G37*
G36*
X120486585Y-92724946D02*
G01*
X120489550Y-92737007D01*
X120494789Y-92745445D01*
X120494919Y-92745574D01*
X120496731Y-92752255D01*
X120496772Y-92752642D01*
X120498291Y-92766981D01*
X120499597Y-92788508D01*
X120500649Y-92815592D01*
X120501124Y-92834293D01*
X120501446Y-92846989D01*
X120501986Y-92881455D01*
X120502268Y-92917745D01*
X120502275Y-92928233D01*
X120502291Y-92954615D01*
X120502055Y-92990821D01*
X120501558Y-93025120D01*
X120500798Y-93056267D01*
X120500323Y-93068695D01*
X120499776Y-93083018D01*
X120498489Y-93104129D01*
X120496938Y-93118356D01*
X120495119Y-93124455D01*
X120494510Y-93125023D01*
X120489498Y-93133837D01*
X120485970Y-93146544D01*
X120484959Y-93150738D01*
X120482921Y-93159191D01*
X120475200Y-93172176D01*
X120463973Y-93176523D01*
X120459398Y-93177497D01*
X120452974Y-93183555D01*
X120451727Y-93185433D01*
X120443688Y-93189316D01*
X120432324Y-93190578D01*
X120421704Y-93189091D01*
X120415896Y-93184727D01*
X120415807Y-93184481D01*
X120412231Y-93181912D01*
X120404958Y-93186660D01*
X120396037Y-93191453D01*
X120379952Y-93193144D01*
X120376539Y-93193053D01*
X120360711Y-93195259D01*
X120344791Y-93200484D01*
X120342321Y-93201537D01*
X120320970Y-93207221D01*
X120295275Y-93209483D01*
X120276645Y-93210493D01*
X120252331Y-93213174D01*
X120229642Y-93216881D01*
X120217756Y-93218798D01*
X120192529Y-93221353D01*
X120158486Y-93223488D01*
X120115443Y-93225215D01*
X120063215Y-93226544D01*
X120040012Y-93227060D01*
X120002206Y-93228184D01*
X119970820Y-93229508D01*
X119946593Y-93230992D01*
X119930265Y-93232594D01*
X119922573Y-93234275D01*
X119915652Y-93235795D01*
X119899801Y-93237372D01*
X119875777Y-93238890D01*
X119844196Y-93240316D01*
X119805676Y-93241620D01*
X119760834Y-93242768D01*
X119740115Y-93243265D01*
X119703593Y-93244332D01*
X119670124Y-93245547D01*
X119640972Y-93246851D01*
X119617401Y-93248184D01*
X119600677Y-93249488D01*
X119592063Y-93250702D01*
X119591025Y-93250983D01*
X119573048Y-93254186D01*
X119552590Y-93255537D01*
X119532578Y-93255092D01*
X119515941Y-93252907D01*
X119505610Y-93249039D01*
X119498237Y-93244966D01*
X119486323Y-93242156D01*
X119485724Y-93242138D01*
X119475220Y-93237229D01*
X119463779Y-93224324D01*
X119451421Y-93206491D01*
X119451421Y-93150738D01*
X120440605Y-93150738D01*
X120442949Y-93153082D01*
X120445293Y-93150738D01*
X120442949Y-93148394D01*
X120440605Y-93150738D01*
X119451421Y-93150738D01*
X119451421Y-93068804D01*
X120454670Y-93068804D01*
X120454710Y-93072087D01*
X120456057Y-93085902D01*
X120458809Y-93093578D01*
X120462282Y-93094042D01*
X120465793Y-93086225D01*
X120466748Y-93082096D01*
X120468332Y-93068695D01*
X120468250Y-93055204D01*
X120466822Y-93043518D01*
X120464368Y-93035529D01*
X120461209Y-93033131D01*
X120457666Y-93038215D01*
X120456776Y-93041565D01*
X120455266Y-93053645D01*
X120454670Y-93068804D01*
X119451421Y-93068804D01*
X119451421Y-93011401D01*
X119451421Y-92972464D01*
X119855838Y-92972464D01*
X119859333Y-92982027D01*
X119862710Y-92984968D01*
X119871232Y-92988438D01*
X119879202Y-92988664D01*
X119882724Y-92985129D01*
X119882688Y-92984789D01*
X119879007Y-92978803D01*
X119871126Y-92970362D01*
X119864026Y-92964195D01*
X119859391Y-92962769D01*
X119856538Y-92967261D01*
X119855838Y-92972464D01*
X119451421Y-92972464D01*
X119451421Y-92951495D01*
X119737394Y-92951495D01*
X119738187Y-92953652D01*
X119744426Y-92956183D01*
X119747661Y-92955654D01*
X119751458Y-92951495D01*
X119750665Y-92949338D01*
X119744426Y-92946807D01*
X119741191Y-92947336D01*
X119737394Y-92951495D01*
X119451421Y-92951495D01*
X119451421Y-92911701D01*
X119788874Y-92911701D01*
X119789179Y-92915672D01*
X119795069Y-92924238D01*
X119805462Y-92935418D01*
X119814977Y-92944324D01*
X119824122Y-92951495D01*
X119826839Y-92953626D01*
X119833659Y-92955801D01*
X119835843Y-92951056D01*
X119834076Y-92947607D01*
X119826467Y-92943477D01*
X119821019Y-92940837D01*
X119817091Y-92934540D01*
X119816281Y-92931526D01*
X119810059Y-92928055D01*
X119806786Y-92927273D01*
X119805706Y-92925557D01*
X120018474Y-92925557D01*
X120020104Y-92941045D01*
X120025736Y-92951056D01*
X120029800Y-92958281D01*
X120047740Y-92978452D01*
X120052687Y-92982767D01*
X120058420Y-92985129D01*
X120066600Y-92988499D01*
X120080505Y-92984963D01*
X120094238Y-92972235D01*
X120107633Y-92950394D01*
X120118701Y-92928233D01*
X120109710Y-92911428D01*
X120099996Y-92897921D01*
X120086770Y-92886343D01*
X120073081Y-92879320D01*
X120061527Y-92878622D01*
X120057802Y-92880389D01*
X120049985Y-92885862D01*
X120047365Y-92887696D01*
X120035672Y-92897938D01*
X120024733Y-92910632D01*
X120018474Y-92925557D01*
X119805706Y-92925557D01*
X119803027Y-92921299D01*
X119802326Y-92917131D01*
X119796809Y-92911039D01*
X119788874Y-92911701D01*
X119451421Y-92911701D01*
X119451421Y-92864595D01*
X119721896Y-92864595D01*
X119722238Y-92868876D01*
X119728932Y-92877658D01*
X119732216Y-92881214D01*
X119741631Y-92888646D01*
X119748682Y-92890427D01*
X119751458Y-92885862D01*
X119749759Y-92880855D01*
X119742566Y-92872359D01*
X119733077Y-92865462D01*
X119724978Y-92863305D01*
X119721896Y-92864595D01*
X119451421Y-92864595D01*
X119451421Y-92834293D01*
X119671761Y-92834293D01*
X119672554Y-92836450D01*
X119678793Y-92838981D01*
X119682028Y-92838452D01*
X119685825Y-92834293D01*
X119685032Y-92832137D01*
X119678793Y-92829605D01*
X119675558Y-92830134D01*
X119671761Y-92834293D01*
X119451421Y-92834293D01*
X119451421Y-92816311D01*
X119463204Y-92792851D01*
X119464785Y-92789800D01*
X119478358Y-92770649D01*
X119497193Y-92756133D01*
X119503645Y-92752369D01*
X119506831Y-92750787D01*
X120436992Y-92750787D01*
X120441626Y-92756958D01*
X120447249Y-92757776D01*
X120449981Y-92752642D01*
X120449017Y-92748994D01*
X120442559Y-92745220D01*
X120439032Y-92746005D01*
X120436992Y-92750787D01*
X119506831Y-92750787D01*
X119510724Y-92748854D01*
X119518461Y-92746243D01*
X119528309Y-92744341D01*
X119541719Y-92742952D01*
X119560143Y-92741882D01*
X119585036Y-92740935D01*
X119617848Y-92739917D01*
X119618026Y-92739911D01*
X119651671Y-92738698D01*
X119685989Y-92737109D01*
X119718469Y-92735285D01*
X119746599Y-92733367D01*
X119767866Y-92731496D01*
X119780461Y-92730156D01*
X119807302Y-92727273D01*
X119838769Y-92723871D01*
X119871921Y-92720267D01*
X119876185Y-92719801D01*
X120408913Y-92719801D01*
X120416857Y-92726302D01*
X120424651Y-92730096D01*
X120429673Y-92730098D01*
X120432749Y-92724582D01*
X120433854Y-92719849D01*
X120430316Y-92714160D01*
X120418728Y-92712403D01*
X120418415Y-92712405D01*
X120409510Y-92714596D01*
X120408913Y-92719801D01*
X119876185Y-92719801D01*
X119903821Y-92716781D01*
X119957012Y-92711931D01*
X120020542Y-92708637D01*
X120089866Y-92707621D01*
X120120909Y-92707469D01*
X120152300Y-92706857D01*
X120177422Y-92705817D01*
X120195242Y-92704396D01*
X120204724Y-92702638D01*
X120207478Y-92701852D01*
X120219984Y-92699854D01*
X120238980Y-92697920D01*
X120262417Y-92696237D01*
X120288243Y-92694994D01*
X120292736Y-92694833D01*
X120320681Y-92694062D01*
X120341239Y-92694073D01*
X120356137Y-92694956D01*
X120367103Y-92696806D01*
X120375865Y-92699715D01*
X120386896Y-92703827D01*
X120393839Y-92704175D01*
X120398708Y-92700327D01*
X120404072Y-92696906D01*
X120416769Y-92694129D01*
X120431960Y-92693791D01*
X120445799Y-92695884D01*
X120454439Y-92700405D01*
X120461030Y-92705104D01*
X120472593Y-92708609D01*
X120477505Y-92709485D01*
X120484029Y-92714113D01*
X120485382Y-92719849D01*
X120486585Y-92724946D01*
G37*
G36*
X121823588Y-92858532D02*
G01*
X121823581Y-92893670D01*
X121823531Y-92934864D01*
X121823394Y-92968203D01*
X121823374Y-92970210D01*
X121823129Y-92994569D01*
X121822695Y-93014845D01*
X121822050Y-93029915D01*
X121821152Y-93040661D01*
X121819962Y-93047966D01*
X121818436Y-93052713D01*
X121816533Y-93055785D01*
X121814212Y-93058065D01*
X121808064Y-93064510D01*
X121804813Y-93070911D01*
X121803898Y-93073509D01*
X121802411Y-93075729D01*
X121798228Y-93081974D01*
X121789096Y-93092816D01*
X121784074Y-93098502D01*
X121775280Y-93109647D01*
X121770513Y-93117429D01*
X121765743Y-93122357D01*
X121754586Y-93124882D01*
X121741748Y-93123361D01*
X121732995Y-93118136D01*
X121732331Y-93109817D01*
X121733067Y-93105726D01*
X121730146Y-93099367D01*
X121727058Y-93099279D01*
X121725138Y-93105648D01*
X121725093Y-93107462D01*
X121723548Y-93113637D01*
X121718684Y-93117995D01*
X121708988Y-93121075D01*
X121692947Y-93123411D01*
X121669050Y-93125543D01*
X121657823Y-93126498D01*
X121630049Y-93129285D01*
X121600105Y-93132721D01*
X121572776Y-93136274D01*
X121554684Y-93138421D01*
X121515998Y-93141274D01*
X121468138Y-93143004D01*
X121411035Y-93143615D01*
X121368200Y-93143891D01*
X121333398Y-93144680D01*
X121305820Y-93146036D01*
X121284395Y-93148010D01*
X121268049Y-93150657D01*
X121250602Y-93153776D01*
X121227197Y-93156719D01*
X121207106Y-93158014D01*
X121191503Y-93158824D01*
X121169444Y-93160752D01*
X121143973Y-93163507D01*
X121118032Y-93166799D01*
X121094665Y-93169568D01*
X121060226Y-93172619D01*
X121025000Y-93174817D01*
X120993798Y-93175811D01*
X120930509Y-93176446D01*
X120909413Y-93155233D01*
X120899276Y-93145023D01*
X120887841Y-93133468D01*
X120880254Y-93125754D01*
X120878567Y-93123607D01*
X120876825Y-93119692D01*
X120875422Y-93113540D01*
X120874316Y-93104259D01*
X120873470Y-93090958D01*
X120873228Y-93083933D01*
X121748728Y-93083933D01*
X121750401Y-93085978D01*
X121757955Y-93087449D01*
X121765134Y-93084920D01*
X121767331Y-93075729D01*
X121766588Y-93068029D01*
X121764332Y-93064009D01*
X121763132Y-93064373D01*
X121757435Y-93069486D01*
X121751544Y-93077397D01*
X121748728Y-93083933D01*
X120873228Y-93083933D01*
X120872843Y-93072742D01*
X120872397Y-93048720D01*
X120872091Y-93018000D01*
X120871887Y-92979688D01*
X120871842Y-92964678D01*
X121237578Y-92964678D01*
X121239092Y-92967821D01*
X121245639Y-92974231D01*
X121254572Y-92980744D01*
X121262805Y-92985200D01*
X121267251Y-92985440D01*
X121268396Y-92982076D01*
X121266258Y-92972636D01*
X121259094Y-92964398D01*
X121249450Y-92960871D01*
X121241600Y-92961828D01*
X121237578Y-92964678D01*
X120871842Y-92964678D01*
X120871795Y-92949298D01*
X121223514Y-92949298D01*
X121224329Y-92952506D01*
X121230546Y-92956183D01*
X121233774Y-92955713D01*
X121237578Y-92951997D01*
X121236750Y-92949713D01*
X121230546Y-92945112D01*
X121226620Y-92944569D01*
X121223514Y-92949298D01*
X120871795Y-92949298D01*
X120871745Y-92932893D01*
X120871715Y-92913012D01*
X121189980Y-92913012D01*
X121191511Y-92926393D01*
X121195006Y-92936961D01*
X121203590Y-92941273D01*
X121209169Y-92941340D01*
X121213677Y-92937686D01*
X121211211Y-92930591D01*
X121209721Y-92929167D01*
X121772905Y-92929167D01*
X121772935Y-92937686D01*
X121772986Y-92951997D01*
X121773040Y-92967315D01*
X121773248Y-92982076D01*
X121773476Y-92998230D01*
X121774204Y-93021377D01*
X121775212Y-93036221D01*
X121776490Y-93042227D01*
X121779483Y-93044023D01*
X121783650Y-93040147D01*
X121783696Y-93040018D01*
X121784567Y-93032703D01*
X121785178Y-93017758D01*
X121785547Y-92996491D01*
X121785694Y-92970210D01*
X121785637Y-92940224D01*
X121785395Y-92907839D01*
X121784987Y-92874366D01*
X121784432Y-92841111D01*
X121783747Y-92809383D01*
X121782953Y-92780490D01*
X121782068Y-92755741D01*
X121781110Y-92736443D01*
X121780098Y-92723905D01*
X121779051Y-92719435D01*
X121778993Y-92719442D01*
X121777579Y-92724434D01*
X121776324Y-92738465D01*
X121775239Y-92761214D01*
X121774337Y-92792356D01*
X121773629Y-92831570D01*
X121773166Y-92874940D01*
X121773128Y-92878532D01*
X121773085Y-92884321D01*
X121772905Y-92929167D01*
X121209721Y-92929167D01*
X121201912Y-92921705D01*
X121189980Y-92913012D01*
X120871715Y-92913012D01*
X120871695Y-92899650D01*
X121242266Y-92899650D01*
X121242280Y-92900141D01*
X121246250Y-92906089D01*
X121255159Y-92905935D01*
X121260344Y-92902318D01*
X121259502Y-92897522D01*
X121251643Y-92895238D01*
X121246195Y-92896065D01*
X121242266Y-92899650D01*
X120871695Y-92899650D01*
X120871677Y-92887484D01*
X120871712Y-92864131D01*
X121120966Y-92864131D01*
X121123336Y-92869021D01*
X121132310Y-92878617D01*
X121133679Y-92879979D01*
X121142788Y-92888250D01*
X121147294Y-92890016D01*
X121148505Y-92885862D01*
X121148380Y-92884751D01*
X121146452Y-92883127D01*
X121223514Y-92883127D01*
X121224237Y-92885862D01*
X121224479Y-92886775D01*
X121230937Y-92890550D01*
X121234464Y-92889765D01*
X121236504Y-92884983D01*
X121231870Y-92878812D01*
X121226247Y-92877993D01*
X121223514Y-92883127D01*
X121146452Y-92883127D01*
X121144133Y-92881174D01*
X121140994Y-92879374D01*
X121136785Y-92871798D01*
X121133777Y-92866326D01*
X121129666Y-92863925D01*
X121401952Y-92863925D01*
X121404171Y-92881134D01*
X121406833Y-92884983D01*
X121415202Y-92897081D01*
X121419309Y-92900556D01*
X121422800Y-92902318D01*
X121437057Y-92909513D01*
X121456961Y-92912796D01*
X121475027Y-92909570D01*
X121481758Y-92904972D01*
X121489432Y-92892125D01*
X121492600Y-92874940D01*
X121491260Y-92855850D01*
X121485412Y-92837287D01*
X121475056Y-92821683D01*
X121471734Y-92818597D01*
X121457624Y-92811834D01*
X121443022Y-92812561D01*
X121430916Y-92820836D01*
X121422412Y-92830936D01*
X121412209Y-92842617D01*
X121408638Y-92847123D01*
X121401952Y-92863925D01*
X121129666Y-92863925D01*
X121127093Y-92862422D01*
X121124733Y-92862495D01*
X121120966Y-92864131D01*
X120871712Y-92864131D01*
X120871736Y-92847778D01*
X120871958Y-92815713D01*
X120872374Y-92790397D01*
X120873012Y-92770940D01*
X120873904Y-92756449D01*
X120875078Y-92746034D01*
X120876564Y-92738804D01*
X120878393Y-92733866D01*
X120884064Y-92720233D01*
X120888163Y-92706543D01*
X120888472Y-92705151D01*
X120893056Y-92696125D01*
X120902350Y-92693651D01*
X120912113Y-92690841D01*
X120920979Y-92679884D01*
X120921095Y-92679662D01*
X120927808Y-92668948D01*
X120930575Y-92665975D01*
X121753467Y-92665975D01*
X121756112Y-92676859D01*
X121756199Y-92677083D01*
X121761033Y-92683757D01*
X121765419Y-92681988D01*
X121767331Y-92672555D01*
X121765955Y-92664910D01*
X121760299Y-92660834D01*
X121756815Y-92661276D01*
X121753467Y-92665975D01*
X120930575Y-92665975D01*
X120933992Y-92662304D01*
X120937487Y-92661331D01*
X120949370Y-92659758D01*
X120967759Y-92658141D01*
X120990950Y-92656623D01*
X121017239Y-92655347D01*
X121032584Y-92654655D01*
X121060503Y-92653068D01*
X121085981Y-92651227D01*
X121106710Y-92649307D01*
X121120376Y-92647485D01*
X121123824Y-92646968D01*
X121139086Y-92645607D01*
X121161289Y-92644411D01*
X121188643Y-92643450D01*
X121219358Y-92642791D01*
X121251643Y-92642502D01*
X121279014Y-92642297D01*
X121314943Y-92641509D01*
X121350250Y-92640023D01*
X121386584Y-92637710D01*
X121425590Y-92634446D01*
X121468917Y-92630102D01*
X121518211Y-92624553D01*
X121575120Y-92617673D01*
X121598506Y-92614965D01*
X121622609Y-92613030D01*
X121641300Y-92613092D01*
X121656742Y-92615333D01*
X121671097Y-92619936D01*
X121686528Y-92627084D01*
X121686691Y-92627166D01*
X121701258Y-92633979D01*
X121712371Y-92638102D01*
X121717635Y-92638646D01*
X121719746Y-92635912D01*
X121719097Y-92630290D01*
X121710730Y-92628018D01*
X121704284Y-92626525D01*
X121702572Y-92619814D01*
X121702742Y-92619087D01*
X121708710Y-92612797D01*
X121722840Y-92609255D01*
X121726378Y-92608838D01*
X121748331Y-92608194D01*
X121764513Y-92612230D01*
X121777279Y-92621475D01*
X121781362Y-92625588D01*
X121793273Y-92637421D01*
X121806008Y-92649912D01*
X121823588Y-92667029D01*
X121823588Y-92672555D01*
X121823588Y-92858532D01*
G37*
G36*
X122100184Y-95000185D02*
G01*
X120600000Y-95000185D01*
X119099815Y-95000185D01*
X119099815Y-93842129D01*
X119139562Y-93842129D01*
X119142149Y-93848853D01*
X119146610Y-93851222D01*
X119152872Y-93846853D01*
X119161381Y-93838163D01*
X119173657Y-93830373D01*
X119185489Y-93826766D01*
X119194623Y-93827950D01*
X119198805Y-93834527D01*
X119197665Y-93852001D01*
X119190649Y-93866203D01*
X119187245Y-93872182D01*
X119181932Y-93885150D01*
X119176132Y-93901698D01*
X119170819Y-93918844D01*
X119166968Y-93933608D01*
X119165553Y-93943008D01*
X119168138Y-93949566D01*
X119174416Y-93959107D01*
X119178988Y-93964589D01*
X119184296Y-93967467D01*
X119189693Y-93963795D01*
X119193529Y-93959496D01*
X119205339Y-93941459D01*
X119213788Y-93921331D01*
X119217017Y-93903232D01*
X119217742Y-93895685D01*
X119221940Y-93880951D01*
X119228608Y-93866822D01*
X119236277Y-93856155D01*
X119243476Y-93851804D01*
X119244046Y-93851930D01*
X119247136Y-93857969D01*
X119249913Y-93872551D01*
X119252232Y-93894971D01*
X119254878Y-93917323D01*
X119259340Y-93939268D01*
X119264915Y-93957115D01*
X119271046Y-93969108D01*
X119277176Y-93973496D01*
X119277507Y-93973454D01*
X119282853Y-93969355D01*
X119290096Y-93960604D01*
X119290281Y-93960343D01*
X119295695Y-93950593D01*
X119297263Y-93939914D01*
X119295597Y-93924271D01*
X119294670Y-93918357D01*
X119290597Y-93890021D01*
X119288496Y-93869691D01*
X119288347Y-93856385D01*
X119290124Y-93849121D01*
X119293807Y-93846918D01*
X119297597Y-93847790D01*
X119301403Y-93853411D01*
X119303221Y-93858430D01*
X119311498Y-93866277D01*
X119323494Y-93872508D01*
X119335897Y-93875046D01*
X119342971Y-93873591D01*
X119350600Y-93865980D01*
X119353178Y-93853842D01*
X119350427Y-93839433D01*
X119342070Y-93825009D01*
X119334869Y-93815608D01*
X119324188Y-93800622D01*
X119313229Y-93784415D01*
X119303135Y-93770258D01*
X119291657Y-93756433D01*
X119282352Y-93747506D01*
X119273670Y-93738543D01*
X119266236Y-93720936D01*
X119265909Y-93719287D01*
X119262119Y-93706252D01*
X119257618Y-93697348D01*
X119255973Y-93692367D01*
X119254555Y-93680429D01*
X119253486Y-93661172D01*
X119252746Y-93634085D01*
X119252317Y-93598652D01*
X119252178Y-93554361D01*
X119252226Y-93518176D01*
X119252432Y-93484969D01*
X119252857Y-93458938D01*
X119253562Y-93438914D01*
X119254606Y-93423730D01*
X119256051Y-93412216D01*
X119257956Y-93403205D01*
X119260382Y-93395527D01*
X119262368Y-93389340D01*
X119266927Y-93365697D01*
X119268586Y-93338664D01*
X119268587Y-93338117D01*
X119270520Y-93314198D01*
X119275613Y-93291218D01*
X119283079Y-93271286D01*
X119292133Y-93256511D01*
X119301989Y-93249002D01*
X119307375Y-93247389D01*
X119311821Y-93247780D01*
X119314763Y-93253049D01*
X119318266Y-93265258D01*
X119324316Y-93278012D01*
X119335121Y-93288699D01*
X119337034Y-93289911D01*
X119348789Y-93299477D01*
X119360071Y-93311305D01*
X119364426Y-93315979D01*
X119378090Y-93324767D01*
X119391891Y-93326698D01*
X119403320Y-93321198D01*
X119405610Y-93319596D01*
X119412381Y-93320396D01*
X119422963Y-93327888D01*
X119429144Y-93332518D01*
X119448096Y-93341545D01*
X119472426Y-93346630D01*
X119503248Y-93347941D01*
X119541677Y-93345644D01*
X119560957Y-93344148D01*
X119589119Y-93342559D01*
X119621650Y-93341173D01*
X119655902Y-93340099D01*
X119689229Y-93339449D01*
X119784051Y-93338261D01*
X119787080Y-93352068D01*
X119787230Y-93353245D01*
X119787628Y-93362857D01*
X119787921Y-93380857D01*
X119788111Y-93406495D01*
X119788206Y-93439024D01*
X119788208Y-93477692D01*
X119788124Y-93521752D01*
X119787958Y-93570453D01*
X119787715Y-93623046D01*
X119787399Y-93678782D01*
X119787015Y-93736912D01*
X119786569Y-93796686D01*
X119786066Y-93857355D01*
X119785509Y-93918170D01*
X119784904Y-93978382D01*
X119784255Y-94037240D01*
X119783568Y-94093996D01*
X119782848Y-94147901D01*
X119782098Y-94198205D01*
X119781325Y-94244158D01*
X119781137Y-94254641D01*
X119780442Y-94295890D01*
X119779997Y-94328904D01*
X119779829Y-94354616D01*
X119779967Y-94373954D01*
X119780439Y-94387851D01*
X119781272Y-94397238D01*
X119782494Y-94403043D01*
X119784133Y-94406200D01*
X119786217Y-94407638D01*
X119792729Y-94407913D01*
X119802399Y-94403023D01*
X119803581Y-94401967D01*
X119811932Y-94396205D01*
X119816013Y-94398526D01*
X119817091Y-94409487D01*
X119817287Y-94414654D01*
X119820040Y-94421755D01*
X119827639Y-94423479D01*
X119840503Y-94421229D01*
X119849361Y-94412925D01*
X119854162Y-94397083D01*
X119856505Y-94388095D01*
X119860734Y-94382012D01*
X119864647Y-94383494D01*
X119866579Y-94393079D01*
X119867495Y-94399469D01*
X119871826Y-94411325D01*
X119874216Y-94417731D01*
X119874554Y-94428822D01*
X119874530Y-94428913D01*
X119875855Y-94436633D01*
X119885333Y-94442404D01*
X119895471Y-94447619D01*
X119903645Y-94454577D01*
X119906782Y-94457320D01*
X119916519Y-94460283D01*
X119927911Y-94460147D01*
X119937374Y-94457188D01*
X119941325Y-94451680D01*
X119941314Y-94451325D01*
X119936704Y-94445910D01*
X119923454Y-94443175D01*
X119921260Y-94442966D01*
X119910268Y-94440371D01*
X119907408Y-94436143D01*
X119912241Y-94431541D01*
X119923344Y-94429171D01*
X119937248Y-94430109D01*
X119950701Y-94434479D01*
X119950787Y-94434522D01*
X119965709Y-94440340D01*
X119981829Y-94444399D01*
X119994874Y-94448536D01*
X120001315Y-94456483D01*
X120005148Y-94462091D01*
X120014912Y-94465084D01*
X120031410Y-94464586D01*
X120055658Y-94460676D01*
X120057649Y-94460287D01*
X120070504Y-94457539D01*
X120077370Y-94454308D01*
X120081074Y-94448283D01*
X120084443Y-94437155D01*
X120086245Y-94429603D01*
X120085855Y-94423118D01*
X120082005Y-94416194D01*
X120073567Y-94406842D01*
X120059410Y-94393074D01*
X120047171Y-94381579D01*
X120035341Y-94371850D01*
X120024566Y-94365832D01*
X120011751Y-94361889D01*
X119993803Y-94358386D01*
X119974688Y-94355524D01*
X119953165Y-94354473D01*
X119933930Y-94356694D01*
X119928329Y-94357759D01*
X119915833Y-94359263D01*
X119908173Y-94357768D01*
X119902171Y-94352896D01*
X119898790Y-94350054D01*
X119886283Y-94345276D01*
X119866215Y-94342948D01*
X119838187Y-94341510D01*
X119838832Y-94217276D01*
X119839015Y-94195375D01*
X119839640Y-94155932D01*
X119840595Y-94116361D01*
X119841810Y-94079038D01*
X119843212Y-94046338D01*
X119844730Y-94020639D01*
X119844846Y-94018985D01*
X119845821Y-94000309D01*
X119846820Y-93973428D01*
X119847821Y-93939387D01*
X119848803Y-93899229D01*
X119849742Y-93853999D01*
X119850618Y-93804742D01*
X119851409Y-93752501D01*
X119852092Y-93698322D01*
X119852645Y-93643249D01*
X119852813Y-93624451D01*
X119853310Y-93572590D01*
X119853831Y-93523719D01*
X119854363Y-93478636D01*
X119854896Y-93438141D01*
X119855416Y-93403030D01*
X119855913Y-93374103D01*
X119856375Y-93352157D01*
X119856791Y-93337990D01*
X119857148Y-93332401D01*
X119857440Y-93331852D01*
X119861762Y-93329769D01*
X119871713Y-93328251D01*
X119888229Y-93327233D01*
X119912244Y-93326653D01*
X119944694Y-93326447D01*
X119967696Y-93326261D01*
X119997174Y-93325587D01*
X120024030Y-93324511D01*
X120046013Y-93323129D01*
X120060871Y-93321536D01*
X120062470Y-93321288D01*
X120079815Y-93318919D01*
X120103265Y-93316092D01*
X120129944Y-93313139D01*
X120156977Y-93310394D01*
X120162503Y-93309851D01*
X120187947Y-93307072D01*
X120211150Y-93304127D01*
X120229744Y-93301332D01*
X120241362Y-93299009D01*
X120251403Y-93297457D01*
X120269268Y-93296034D01*
X120292853Y-93294897D01*
X120320295Y-93294135D01*
X120349728Y-93293837D01*
X120378212Y-93293748D01*
X120402438Y-93293453D01*
X120419962Y-93292826D01*
X120432194Y-93291734D01*
X120440547Y-93290045D01*
X120446432Y-93287627D01*
X120451261Y-93284349D01*
X120462467Y-93277806D01*
X120473306Y-93274972D01*
X120477097Y-93273997D01*
X120487603Y-93267538D01*
X120500734Y-93256728D01*
X120514466Y-93243568D01*
X120526779Y-93230055D01*
X120535649Y-93218190D01*
X120539055Y-93209970D01*
X120540068Y-93204563D01*
X120546087Y-93195275D01*
X120546742Y-93194660D01*
X120551278Y-93185430D01*
X120553119Y-93172304D01*
X120553134Y-93171095D01*
X120555127Y-93156881D01*
X120559452Y-93145921D01*
X120564648Y-93136090D01*
X120569480Y-93122610D01*
X120570148Y-93119583D01*
X120572243Y-93104768D01*
X120574465Y-93081998D01*
X120576746Y-93052333D01*
X120579014Y-93016833D01*
X120581202Y-92976558D01*
X120583238Y-92932566D01*
X120585053Y-92885918D01*
X120585330Y-92878129D01*
X120586452Y-92848619D01*
X120587505Y-92826964D01*
X120588660Y-92811922D01*
X120590084Y-92802253D01*
X120591946Y-92796717D01*
X120594414Y-92794072D01*
X120597656Y-92793079D01*
X120599004Y-92792788D01*
X120609090Y-92789284D01*
X120624185Y-92782952D01*
X120641565Y-92774917D01*
X120662227Y-92766218D01*
X120685730Y-92760719D01*
X120703704Y-92762576D01*
X120716014Y-92771793D01*
X120716774Y-92773209D01*
X120718473Y-92780280D01*
X120719795Y-92792859D01*
X120720773Y-92811719D01*
X120721438Y-92837633D01*
X120721823Y-92871373D01*
X120721961Y-92913714D01*
X120722036Y-92946191D01*
X120722336Y-92981749D01*
X120722904Y-93009730D01*
X120723788Y-93031157D01*
X120725032Y-93047053D01*
X120726683Y-93058444D01*
X120728787Y-93066353D01*
X120730534Y-93071993D01*
X120734194Y-93090388D01*
X120735748Y-93109000D01*
X120735831Y-93112839D01*
X120738476Y-93131121D01*
X120745330Y-93143706D01*
X120751810Y-93153166D01*
X120754706Y-93161648D01*
X120754958Y-93162876D01*
X120759668Y-93170784D01*
X120769106Y-93182539D01*
X120781663Y-93196084D01*
X120791847Y-93206262D01*
X120802540Y-93215828D01*
X120811177Y-93220951D01*
X120820338Y-93223013D01*
X120832600Y-93223396D01*
X120834734Y-93223412D01*
X120854474Y-93225816D01*
X120868500Y-93232780D01*
X120868627Y-93232879D01*
X120878869Y-93239434D01*
X120886841Y-93242156D01*
X120894474Y-93244424D01*
X120904854Y-93250349D01*
X120909035Y-93252886D01*
X120916921Y-93255629D01*
X120928261Y-93257117D01*
X120945021Y-93257558D01*
X120969169Y-93257162D01*
X120986395Y-93256441D01*
X121009382Y-93254701D01*
X121028895Y-93252365D01*
X121041984Y-93249735D01*
X121049296Y-93248182D01*
X121064921Y-93246427D01*
X121087754Y-93245014D01*
X121118336Y-93243920D01*
X121157208Y-93243119D01*
X121204912Y-93242590D01*
X121216988Y-93242487D01*
X121266407Y-93241797D01*
X121306886Y-93240737D01*
X121338780Y-93239290D01*
X121362440Y-93237442D01*
X121378221Y-93235178D01*
X121403038Y-93230724D01*
X121428287Y-93227832D01*
X121447370Y-93227617D01*
X121447784Y-93228082D01*
X121449030Y-93235428D01*
X121450100Y-93251043D01*
X121450994Y-93274080D01*
X121451713Y-93303693D01*
X121452254Y-93339034D01*
X121452617Y-93379256D01*
X121452802Y-93423512D01*
X121452809Y-93470955D01*
X121452636Y-93520738D01*
X121452283Y-93572013D01*
X121451749Y-93623934D01*
X121451034Y-93675654D01*
X121450137Y-93726325D01*
X121449058Y-93775100D01*
X121447795Y-93821133D01*
X121446225Y-93872909D01*
X121444542Y-93929527D01*
X121443158Y-93977947D01*
X121442066Y-94018819D01*
X121441259Y-94052796D01*
X121440731Y-94080527D01*
X121440473Y-94102663D01*
X121440481Y-94119856D01*
X121440745Y-94132757D01*
X121441260Y-94142015D01*
X121442018Y-94148283D01*
X121443012Y-94152210D01*
X121444237Y-94154448D01*
X121444795Y-94155085D01*
X121453960Y-94160283D01*
X121463851Y-94159892D01*
X121470287Y-94153987D01*
X121472521Y-94149834D01*
X121478574Y-94146484D01*
X121483778Y-94150205D01*
X121485210Y-94159847D01*
X121484894Y-94163552D01*
X121486727Y-94171293D01*
X121494522Y-94174273D01*
X121504444Y-94173444D01*
X121516625Y-94168413D01*
X121521083Y-94165617D01*
X121530860Y-94161632D01*
X121536113Y-94164982D01*
X121538490Y-94176255D01*
X121539215Y-94181604D01*
X121543072Y-94189910D01*
X121551680Y-94193091D01*
X121560320Y-94195462D01*
X121571144Y-94201605D01*
X121580763Y-94206067D01*
X121596566Y-94207038D01*
X121601283Y-94206459D01*
X121611874Y-94203255D01*
X121616443Y-94199052D01*
X121614117Y-94195397D01*
X121604022Y-94193835D01*
X121591017Y-94192897D01*
X121579430Y-94189398D01*
X121575120Y-94183958D01*
X121575279Y-94183217D01*
X121580676Y-94180502D01*
X121591408Y-94179690D01*
X121604282Y-94180594D01*
X121616102Y-94183028D01*
X121623675Y-94186803D01*
X121623946Y-94187064D01*
X121633629Y-94191855D01*
X121646724Y-94193835D01*
X121658149Y-94195430D01*
X121671538Y-94203557D01*
X121673004Y-94205108D01*
X121680043Y-94210057D01*
X121689845Y-94211829D01*
X121705636Y-94211141D01*
X121705834Y-94211124D01*
X121723289Y-94208522D01*
X121733346Y-94203039D01*
X121737934Y-94192587D01*
X121738983Y-94175083D01*
X121736744Y-94159566D01*
X121729666Y-94143746D01*
X121719322Y-94132489D01*
X121707338Y-94128202D01*
X121699550Y-94125953D01*
X121689978Y-94118826D01*
X121682074Y-94112802D01*
X121671071Y-94109450D01*
X121669247Y-94109361D01*
X121657065Y-94106891D01*
X121643030Y-94102088D01*
X121637446Y-94099855D01*
X121627254Y-94097206D01*
X121617084Y-94097983D01*
X121602566Y-94102197D01*
X121591463Y-94105659D01*
X121581898Y-94107285D01*
X121574648Y-94105330D01*
X121566004Y-94099525D01*
X121562860Y-94097321D01*
X121549756Y-94091723D01*
X121533827Y-94091858D01*
X121530478Y-94092241D01*
X121517751Y-94092519D01*
X121509782Y-94090880D01*
X121507991Y-94087166D01*
X121506599Y-94077728D01*
X121505632Y-94061862D01*
X121505062Y-94038834D01*
X121504861Y-94007907D01*
X121504999Y-93968344D01*
X121505100Y-93953625D01*
X121505457Y-93907900D01*
X121505865Y-93867343D01*
X121506362Y-93830341D01*
X121506990Y-93795277D01*
X121507789Y-93760537D01*
X121508797Y-93724505D01*
X121510057Y-93685567D01*
X121511606Y-93642107D01*
X121513487Y-93592510D01*
X121515738Y-93535161D01*
X121516115Y-93525582D01*
X121517776Y-93481720D01*
X121519289Y-93439057D01*
X121520614Y-93398955D01*
X121521707Y-93362775D01*
X121522529Y-93331878D01*
X121523037Y-93307626D01*
X121523190Y-93291381D01*
X121523148Y-93273862D01*
X121523145Y-93254992D01*
X121523192Y-93241187D01*
X121523285Y-93234601D01*
X121524588Y-93233379D01*
X121533582Y-93231346D01*
X121551305Y-93229586D01*
X121577971Y-93228082D01*
X121613797Y-93226814D01*
X121622010Y-93226564D01*
X121674536Y-93224019D01*
X121719218Y-93219959D01*
X121757317Y-93214200D01*
X121790093Y-93206558D01*
X121818808Y-93196848D01*
X121825511Y-93194128D01*
X121842266Y-93186265D01*
X121853518Y-93178000D01*
X121861918Y-93166952D01*
X121870117Y-93150738D01*
X121871759Y-93147376D01*
X121880857Y-93132583D01*
X121890579Y-93121017D01*
X121902443Y-93110047D01*
X121912240Y-93119844D01*
X121913675Y-93121345D01*
X121918004Y-93127705D01*
X121920552Y-93136505D01*
X121921766Y-93150055D01*
X121922093Y-93170663D01*
X121922131Y-93174754D01*
X121923298Y-93197819D01*
X121925761Y-93220165D01*
X121929070Y-93237468D01*
X121931159Y-93247848D01*
X121933607Y-93269409D01*
X121935279Y-93296443D01*
X121936174Y-93326833D01*
X121936294Y-93358462D01*
X121935637Y-93389214D01*
X121934205Y-93416971D01*
X121931999Y-93439617D01*
X121929019Y-93455036D01*
X121927273Y-93461436D01*
X121923406Y-93481373D01*
X121921708Y-93499573D01*
X121921579Y-93505454D01*
X121920567Y-93517920D01*
X121917643Y-93528177D01*
X121911638Y-93538444D01*
X121901382Y-93550941D01*
X121885705Y-93567887D01*
X121879612Y-93574549D01*
X121867721Y-93588900D01*
X121859484Y-93600781D01*
X121856405Y-93608126D01*
X121854221Y-93615860D01*
X121847028Y-93625322D01*
X121840628Y-93635201D01*
X121837714Y-93649352D01*
X121838918Y-93663390D01*
X121844459Y-93673272D01*
X121845197Y-93673847D01*
X121855761Y-93676699D01*
X121866323Y-93672522D01*
X121873205Y-93662671D01*
X121874114Y-93660041D01*
X121882048Y-93648971D01*
X121895081Y-93645402D01*
X121895714Y-93645412D01*
X121899093Y-93646614D01*
X121901301Y-93650911D01*
X121902583Y-93659873D01*
X121903186Y-93675070D01*
X121903357Y-93698071D01*
X121903456Y-93709733D01*
X121904614Y-93736279D01*
X121907058Y-93753711D01*
X121910777Y-93761971D01*
X121915759Y-93760997D01*
X121918219Y-93756696D01*
X121923030Y-93743389D01*
X121929180Y-93722383D01*
X121936398Y-93694555D01*
X121939205Y-93683367D01*
X121942723Y-93671317D01*
X121945723Y-93666262D01*
X121949252Y-93666879D01*
X121954356Y-93671844D01*
X121960507Y-93679051D01*
X121970582Y-93697620D01*
X121973606Y-93719214D01*
X121975917Y-93735010D01*
X121984457Y-93747651D01*
X121986032Y-93749109D01*
X121996301Y-93756443D01*
X122004522Y-93756145D01*
X122013627Y-93748278D01*
X122019141Y-93741112D01*
X122019318Y-93734855D01*
X122014262Y-93725131D01*
X122013467Y-93723667D01*
X122009304Y-93711464D01*
X122006297Y-93695297D01*
X122004611Y-93677790D01*
X122004413Y-93661570D01*
X122005865Y-93649263D01*
X122009134Y-93643494D01*
X122012263Y-93642662D01*
X122018465Y-93645653D01*
X122020487Y-93656894D01*
X122021434Y-93663595D01*
X122027981Y-93674018D01*
X122038636Y-93678147D01*
X122044516Y-93679688D01*
X122053811Y-93685638D01*
X122061996Y-93690276D01*
X122069230Y-93687845D01*
X122072056Y-93677627D01*
X122071963Y-93675912D01*
X122068127Y-93662779D01*
X122060017Y-93646668D01*
X122049492Y-93630843D01*
X122038412Y-93618569D01*
X122038107Y-93618298D01*
X122028548Y-93606606D01*
X122022875Y-93593959D01*
X122019186Y-93583353D01*
X122013644Y-93575166D01*
X122013354Y-93574911D01*
X122008228Y-93566555D01*
X122004445Y-93554217D01*
X122004326Y-93553605D01*
X122000200Y-93541122D01*
X121994579Y-93532714D01*
X121990343Y-93526907D01*
X121988286Y-93517052D01*
X121988699Y-93502058D01*
X121991620Y-93480636D01*
X121997091Y-93451494D01*
X121997271Y-93450599D01*
X122000988Y-93429608D01*
X122003577Y-93408349D01*
X122005195Y-93384548D01*
X122005998Y-93355933D01*
X122006144Y-93320228D01*
X122005923Y-93296621D01*
X122005303Y-93268913D01*
X122004373Y-93244578D01*
X122003213Y-93225615D01*
X122001904Y-93214027D01*
X121999735Y-93202358D01*
X121996082Y-93182458D01*
X121992452Y-93162459D01*
X121989422Y-93147559D01*
X121984747Y-93128652D01*
X121980283Y-93114311D01*
X121977293Y-93103025D01*
X121974632Y-93084514D01*
X121973606Y-93065017D01*
X121973360Y-93053989D01*
X121970580Y-93032679D01*
X121964230Y-93015904D01*
X121963031Y-93013516D01*
X121957219Y-92996620D01*
X121954854Y-92980050D01*
X121954480Y-92973754D01*
X121949657Y-92956763D01*
X121938446Y-92936775D01*
X121930981Y-92924427D01*
X121924453Y-92911165D01*
X121921879Y-92902377D01*
X121921600Y-92899699D01*
X121918350Y-92887933D01*
X121912661Y-92874142D01*
X121910608Y-92869553D01*
X121908236Y-92862465D01*
X121906459Y-92853625D01*
X121905188Y-92841762D01*
X121904337Y-92825606D01*
X121903821Y-92803885D01*
X121903552Y-92775331D01*
X121903444Y-92738670D01*
X121903285Y-92621951D01*
X121887325Y-92602474D01*
X121881624Y-92594930D01*
X121873592Y-92581807D01*
X121869745Y-92571834D01*
X121866107Y-92563406D01*
X121854729Y-92557111D01*
X121849818Y-92555493D01*
X121837268Y-92548884D01*
X121827514Y-92540675D01*
X121823588Y-92533195D01*
X121822359Y-92529060D01*
X121813689Y-92520284D01*
X121797804Y-92511270D01*
X121797674Y-92511211D01*
X121792510Y-92509632D01*
X121784210Y-92508336D01*
X121771993Y-92507303D01*
X121755079Y-92506513D01*
X121732690Y-92505946D01*
X121704045Y-92505582D01*
X121668364Y-92505401D01*
X121624868Y-92505382D01*
X121572776Y-92505507D01*
X121544168Y-92505632D01*
X121468883Y-92506282D01*
X121402370Y-92507384D01*
X121344190Y-92508954D01*
X121293904Y-92511009D01*
X121251071Y-92513567D01*
X121215253Y-92516642D01*
X121186010Y-92520254D01*
X121182383Y-92520749D01*
X121164266Y-92522611D01*
X121140230Y-92524458D01*
X121112980Y-92526101D01*
X121085216Y-92527350D01*
X121079885Y-92527552D01*
X121050273Y-92528923D01*
X121020396Y-92530659D01*
X120993469Y-92532560D01*
X120972702Y-92534422D01*
X120970481Y-92534658D01*
X120943982Y-92537280D01*
X120915037Y-92539881D01*
X120889525Y-92541931D01*
X120866916Y-92544303D01*
X120851032Y-92547518D01*
X120843242Y-92551313D01*
X120838012Y-92555087D01*
X120827181Y-92557697D01*
X120817666Y-92558375D01*
X120805858Y-92562552D01*
X120801587Y-92569918D01*
X120801190Y-92572681D01*
X120797377Y-92576449D01*
X120793683Y-92578088D01*
X120784534Y-92585210D01*
X120772537Y-92596228D01*
X120759583Y-92609225D01*
X120747561Y-92622283D01*
X120738361Y-92633482D01*
X120733872Y-92640906D01*
X120733186Y-92642990D01*
X120729082Y-92648679D01*
X120721883Y-92646767D01*
X120721332Y-92646488D01*
X120710238Y-92643367D01*
X120696263Y-92642082D01*
X120695328Y-92642072D01*
X120678804Y-92639889D01*
X120662566Y-92635050D01*
X120648188Y-92630402D01*
X120623666Y-92628662D01*
X120601708Y-92635021D01*
X120594900Y-92637601D01*
X120578289Y-92640822D01*
X120558698Y-92642053D01*
X120545488Y-92641802D01*
X120532078Y-92639898D01*
X120520852Y-92634969D01*
X120507627Y-92625674D01*
X120499279Y-92619550D01*
X120487382Y-92612874D01*
X120474922Y-92609912D01*
X120457511Y-92609225D01*
X120456149Y-92609221D01*
X120433824Y-92608591D01*
X120413058Y-92607066D01*
X120395807Y-92604890D01*
X120384023Y-92602304D01*
X120379660Y-92599552D01*
X120381591Y-92596712D01*
X120389295Y-92592775D01*
X120394271Y-92590527D01*
X120397046Y-92585335D01*
X120391813Y-92579959D01*
X120379310Y-92575663D01*
X120372338Y-92574485D01*
X120349956Y-92572633D01*
X120321282Y-92572077D01*
X120288413Y-92572724D01*
X120253450Y-92574483D01*
X120218490Y-92577259D01*
X120185632Y-92580961D01*
X120156977Y-92585495D01*
X120154879Y-92585838D01*
X120141087Y-92587168D01*
X120120170Y-92588343D01*
X120093937Y-92589295D01*
X120064192Y-92589954D01*
X120032743Y-92590252D01*
X120023280Y-92590293D01*
X119979008Y-92590964D01*
X119942745Y-92592438D01*
X119913369Y-92594777D01*
X119889756Y-92598041D01*
X119873448Y-92600410D01*
X119846555Y-92602944D01*
X119812217Y-92604969D01*
X119769793Y-92606521D01*
X119718641Y-92607637D01*
X119679641Y-92608437D01*
X119637109Y-92609807D01*
X119603059Y-92611555D01*
X119577788Y-92613664D01*
X119561591Y-92616118D01*
X119550621Y-92618180D01*
X119529401Y-92621115D01*
X119504585Y-92623712D01*
X119479559Y-92625581D01*
X119470807Y-92626125D01*
X119444455Y-92628523D01*
X119427043Y-92631589D01*
X119418245Y-92635375D01*
X119412110Y-92639195D01*
X119400158Y-92642082D01*
X119390832Y-92644679D01*
X119378459Y-92651616D01*
X119366162Y-92660801D01*
X119356735Y-92670136D01*
X119352972Y-92677523D01*
X119352202Y-92680195D01*
X119346327Y-92688805D01*
X119336563Y-92698979D01*
X119324483Y-92713002D01*
X119320052Y-92726049D01*
X119319692Y-92730001D01*
X119316355Y-92743619D01*
X119310676Y-92758624D01*
X119309795Y-92760610D01*
X119307224Y-92767373D01*
X119305236Y-92775112D01*
X119303757Y-92785026D01*
X119302712Y-92798314D01*
X119302029Y-92816179D01*
X119301632Y-92839819D01*
X119301448Y-92870434D01*
X119301403Y-92909225D01*
X119301403Y-93039390D01*
X119284994Y-93057304D01*
X119284606Y-93057729D01*
X119272478Y-93074527D01*
X119268557Y-93089537D01*
X119266973Y-93101930D01*
X119262185Y-93116014D01*
X119261540Y-93117307D01*
X119256379Y-93130990D01*
X119252418Y-93146486D01*
X119251790Y-93149584D01*
X119248179Y-93162382D01*
X119244330Y-93170448D01*
X119235301Y-93183702D01*
X119223938Y-93211898D01*
X119218274Y-93245606D01*
X119216454Y-93262220D01*
X119213249Y-93277162D01*
X119209373Y-93284857D01*
X119207776Y-93286787D01*
X119204991Y-93295599D01*
X119203421Y-93311383D01*
X119202915Y-93335319D01*
X119202660Y-93348766D01*
X119201204Y-93376726D01*
X119198748Y-93406772D01*
X119195627Y-93434367D01*
X119195289Y-93436946D01*
X119192808Y-93461287D01*
X119191034Y-93488607D01*
X119189971Y-93517144D01*
X119189620Y-93545138D01*
X119189985Y-93570827D01*
X119191066Y-93592452D01*
X119192867Y-93608250D01*
X119195390Y-93616461D01*
X119197273Y-93622658D01*
X119199244Y-93636429D01*
X119200926Y-93655483D01*
X119202087Y-93677696D01*
X119202688Y-93698112D01*
X119202706Y-93716178D01*
X119201780Y-93728054D01*
X119199753Y-93735486D01*
X119196467Y-93740220D01*
X119191823Y-93745461D01*
X119188889Y-93750629D01*
X119188694Y-93751311D01*
X119185060Y-93758072D01*
X119177780Y-93769993D01*
X119168096Y-93785020D01*
X119162977Y-93792888D01*
X119149627Y-93815006D01*
X119141938Y-93831134D01*
X119139562Y-93842129D01*
X119099815Y-93842129D01*
X119099815Y-93500000D01*
X119099815Y-91999816D01*
X120600000Y-91999816D01*
X122100184Y-91999816D01*
X122100184Y-93500000D01*
X122100184Y-93677627D01*
X122100184Y-95000185D01*
G37*
%TD*%
M02*
