%TF.GenerationSoftware,KiCad,Pcbnew,8.0.2-8.0.2-0~ubuntu22.04.1*%
%TF.CreationDate,2024-06-03T20:12:09+08:00*%
%TF.ProjectId,pcb-stm32,7063622d-7374-46d3-9332-2e6b69636164,rev?*%
%TF.SameCoordinates,Original*%
%TF.FileFunction,Soldermask,Top*%
%TF.FilePolarity,Negative*%
%FSLAX46Y46*%
G04 Gerber Fmt 4.6, Leading zero omitted, Abs format (unit mm)*
G04 Created by KiCad (PCBNEW 8.0.2-8.0.2-0~ubuntu22.04.1) date 2024-06-03 20:12:09*
%MOMM*%
%LPD*%
G01*
G04 APERTURE LIST*
G04 Aperture macros list*
%AMRoundRect*
0 Rectangle with rounded corners*
0 $1 Rounding radius*
0 $2 $3 $4 $5 $6 $7 $8 $9 X,Y pos of 4 corners*
0 Add a 4 corners polygon primitive as box body*
4,1,4,$2,$3,$4,$5,$6,$7,$8,$9,$2,$3,0*
0 Add four circle primitives for the rounded corners*
1,1,$1+$1,$2,$3*
1,1,$1+$1,$4,$5*
1,1,$1+$1,$6,$7*
1,1,$1+$1,$8,$9*
0 Add four rect primitives between the rounded corners*
20,1,$1+$1,$2,$3,$4,$5,0*
20,1,$1+$1,$4,$5,$6,$7,0*
20,1,$1+$1,$6,$7,$8,$9,0*
20,1,$1+$1,$8,$9,$2,$3,0*%
G04 Aperture macros list end*
%ADD10RoundRect,0.225000X0.250000X-0.225000X0.250000X0.225000X-0.250000X0.225000X-0.250000X-0.225000X0*%
%ADD11RoundRect,0.225000X0.225000X0.250000X-0.225000X0.250000X-0.225000X-0.250000X0.225000X-0.250000X0*%
%ADD12R,1.700000X1.700000*%
%ADD13O,1.700000X1.700000*%
%ADD14RoundRect,0.200000X0.200000X0.275000X-0.200000X0.275000X-0.200000X-0.275000X0.200000X-0.275000X0*%
%ADD15RoundRect,0.200000X-0.200000X-0.275000X0.200000X-0.275000X0.200000X0.275000X-0.200000X0.275000X0*%
%ADD16RoundRect,0.218750X0.256250X-0.218750X0.256250X0.218750X-0.256250X0.218750X-0.256250X-0.218750X0*%
%ADD17RoundRect,0.225000X-0.250000X0.225000X-0.250000X-0.225000X0.250000X-0.225000X0.250000X0.225000X0*%
%ADD18C,0.700000*%
%ADD19C,4.400000*%
%ADD20RoundRect,0.225000X-0.225000X-0.250000X0.225000X-0.250000X0.225000X0.250000X-0.225000X0.250000X0*%
%ADD21R,1.000000X1.800000*%
%ADD22RoundRect,0.200000X0.275000X-0.200000X0.275000X0.200000X-0.275000X0.200000X-0.275000X-0.200000X0*%
%ADD23RoundRect,0.062500X0.350000X0.062500X-0.350000X0.062500X-0.350000X-0.062500X0.350000X-0.062500X0*%
%ADD24RoundRect,0.062500X0.062500X0.350000X-0.062500X0.350000X-0.062500X-0.350000X0.062500X-0.350000X0*%
%ADD25R,1.680000X1.680000*%
%ADD26R,3.400000X0.980000*%
%ADD27RoundRect,0.200000X-0.275000X0.200000X-0.275000X-0.200000X0.275000X-0.200000X0.275000X0.200000X0*%
%ADD28R,1.000000X1.000000*%
%ADD29O,1.000000X1.000000*%
%ADD30RoundRect,0.075000X0.075000X-0.662500X0.075000X0.662500X-0.075000X0.662500X-0.075000X-0.662500X0*%
%ADD31RoundRect,0.075000X0.662500X-0.075000X0.662500X0.075000X-0.662500X0.075000X-0.662500X-0.075000X0*%
%ADD32C,2.000000*%
%ADD33RoundRect,0.218750X-0.218750X-0.256250X0.218750X-0.256250X0.218750X0.256250X-0.218750X0.256250X0*%
%ADD34R,1.400000X1.200000*%
%ADD35RoundRect,0.100000X0.100000X-0.637500X0.100000X0.637500X-0.100000X0.637500X-0.100000X-0.637500X0*%
%ADD36C,0.650000*%
%ADD37R,1.240000X0.600000*%
%ADD38R,1.240000X0.300000*%
%ADD39O,2.100000X1.000000*%
%ADD40O,1.800000X1.000000*%
G04 APERTURE END LIST*
D10*
%TO.C,C5*%
X108100000Y-95325000D03*
X108100000Y-93775000D03*
%TD*%
D11*
%TO.C,C3*%
X151575000Y-88700000D03*
X150025000Y-88700000D03*
%TD*%
D10*
%TO.C,C10*%
X135200000Y-87775000D03*
X135200000Y-86225000D03*
%TD*%
D11*
%TO.C,C20*%
X121925000Y-77350000D03*
X120375000Y-77350000D03*
%TD*%
D12*
%TO.C,J3*%
X150080000Y-99000000D03*
D13*
X147540000Y-99000000D03*
X145000000Y-99000000D03*
X142460000Y-99000000D03*
X139920000Y-99000000D03*
X137380000Y-99000000D03*
X134840000Y-99000000D03*
X132300000Y-99000000D03*
X129760000Y-99000000D03*
X127220000Y-99000000D03*
X124680000Y-99000000D03*
X122140000Y-99000000D03*
X119600000Y-99000000D03*
X117060000Y-99000000D03*
%TD*%
D14*
%TO.C,R26*%
X127025000Y-85700000D03*
X125375000Y-85700000D03*
%TD*%
D11*
%TO.C,C13*%
X131675000Y-75400000D03*
X130125000Y-75400000D03*
%TD*%
D12*
%TO.C,J2*%
X117250000Y-72150000D03*
D13*
X119790000Y-72150000D03*
X122330000Y-72150000D03*
X124870000Y-72150000D03*
X127410000Y-72150000D03*
X129950000Y-72150000D03*
X132490000Y-72150000D03*
X135030000Y-72150000D03*
X137570000Y-72150000D03*
X140110000Y-72150000D03*
X142650000Y-72150000D03*
X145190000Y-72150000D03*
X147730000Y-72150000D03*
X150270000Y-72150000D03*
%TD*%
D11*
%TO.C,C22*%
X123525000Y-83850000D03*
X121975000Y-83850000D03*
%TD*%
D15*
%TO.C,R1*%
X148675000Y-76200000D03*
X150325000Y-76200000D03*
%TD*%
D16*
%TO.C,D1*%
X132000000Y-94087500D03*
X132000000Y-92512500D03*
%TD*%
D17*
%TO.C,C23*%
X139200000Y-92825000D03*
X139200000Y-94375000D03*
%TD*%
D10*
%TO.C,C17*%
X120700000Y-93375000D03*
X120700000Y-91825000D03*
%TD*%
D17*
%TO.C,C2*%
X115300000Y-94525000D03*
X115300000Y-96075000D03*
%TD*%
D11*
%TO.C,C14*%
X121075000Y-89700000D03*
X119525000Y-89700000D03*
%TD*%
D17*
%TO.C,C24*%
X139200000Y-89725000D03*
X139200000Y-91275000D03*
%TD*%
D18*
%TO.C,H4*%
X153650000Y-98900000D03*
X154133274Y-97733274D03*
X154133274Y-100066726D03*
X155300000Y-97250000D03*
D19*
X155300000Y-98900000D03*
D18*
X155300000Y-100550000D03*
X156466726Y-97733274D03*
X156466726Y-100066726D03*
X156950000Y-98900000D03*
%TD*%
D11*
%TO.C,C4*%
X112475000Y-91850000D03*
X110925000Y-91850000D03*
%TD*%
D12*
%TO.C,J4*%
X136200000Y-90400000D03*
D13*
X136200000Y-92940000D03*
%TD*%
D20*
%TO.C,C11*%
X129025000Y-81900000D03*
X130575000Y-81900000D03*
%TD*%
D21*
%TO.C,Y1*%
X117000000Y-92550000D03*
X114500000Y-92550000D03*
%TD*%
D11*
%TO.C,C21*%
X125975000Y-96350000D03*
X124425000Y-96350000D03*
%TD*%
D22*
%TO.C,R14*%
X126225000Y-89890000D03*
X126225000Y-88240000D03*
%TD*%
D23*
%TO.C,U5*%
X122625000Y-81202500D03*
X122625000Y-80702500D03*
X122625000Y-80202500D03*
X122625000Y-79702500D03*
D24*
X121912500Y-78990000D03*
X121412500Y-78990000D03*
X120912500Y-78990000D03*
X120412500Y-78990000D03*
D23*
X119700000Y-79702500D03*
X119700000Y-80202500D03*
X119700000Y-80702500D03*
X119700000Y-81202500D03*
D24*
X120412500Y-81915000D03*
X120912500Y-81915000D03*
X121412500Y-81915000D03*
X121912500Y-81915000D03*
D25*
X121162500Y-80452500D03*
%TD*%
D15*
%TO.C,R4*%
X110775000Y-97150000D03*
X112425000Y-97150000D03*
%TD*%
D26*
%TO.C,L2*%
X125700000Y-79430000D03*
X125700000Y-81800000D03*
%TD*%
D15*
%TO.C,R18*%
X120475000Y-86000000D03*
X122125000Y-86000000D03*
%TD*%
D27*
%TO.C,R17*%
X120700000Y-94875000D03*
X120700000Y-96525000D03*
%TD*%
D14*
%TO.C,R22*%
X113525000Y-79200000D03*
X111875000Y-79200000D03*
%TD*%
D11*
%TO.C,C15*%
X120437500Y-83852500D03*
X118887500Y-83852500D03*
%TD*%
D28*
%TO.C,J5*%
X106800000Y-76000000D03*
D29*
X106800000Y-77270000D03*
%TD*%
D14*
%TO.C,R20*%
X117725000Y-75000000D03*
X116075000Y-75000000D03*
%TD*%
D18*
%TO.C,H3*%
X106016726Y-98950000D03*
X106500000Y-97783274D03*
X106500000Y-100116726D03*
X107666726Y-97300000D03*
D19*
X107666726Y-98950000D03*
D18*
X107666726Y-100600000D03*
X108833452Y-97783274D03*
X108833452Y-100116726D03*
X109316726Y-98950000D03*
%TD*%
D30*
%TO.C,U2*%
X134190000Y-83882500D03*
X134690000Y-83882500D03*
X135190000Y-83882500D03*
X135690000Y-83882500D03*
X136190000Y-83882500D03*
X136690000Y-83882500D03*
X137190000Y-83882500D03*
X137690000Y-83882500D03*
X138190000Y-83882500D03*
X138690000Y-83882500D03*
X139190000Y-83882500D03*
X139690000Y-83882500D03*
D31*
X141102500Y-82470000D03*
X141102500Y-81970000D03*
X141102500Y-81470000D03*
X141102500Y-80970000D03*
X141102500Y-80470000D03*
X141102500Y-79970000D03*
X141102500Y-79470000D03*
X141102500Y-78970000D03*
X141102500Y-78470000D03*
X141102500Y-77970000D03*
X141102500Y-77470000D03*
X141102500Y-76970000D03*
D30*
X139690000Y-75557500D03*
X139190000Y-75557500D03*
X138690000Y-75557500D03*
X138190000Y-75557500D03*
X137690000Y-75557500D03*
X137190000Y-75557500D03*
X136690000Y-75557500D03*
X136190000Y-75557500D03*
X135690000Y-75557500D03*
X135190000Y-75557500D03*
X134690000Y-75557500D03*
X134190000Y-75557500D03*
D31*
X132777500Y-76970000D03*
X132777500Y-77470000D03*
X132777500Y-77970000D03*
X132777500Y-78470000D03*
X132777500Y-78970000D03*
X132777500Y-79470000D03*
X132777500Y-79970000D03*
X132777500Y-80470000D03*
X132777500Y-80970000D03*
X132777500Y-81470000D03*
X132777500Y-81970000D03*
X132777500Y-82470000D03*
%TD*%
D22*
%TO.C,R16*%
X123900000Y-77415000D03*
X123900000Y-75765000D03*
%TD*%
D15*
%TO.C,R2*%
X115475000Y-90400000D03*
X117125000Y-90400000D03*
%TD*%
D14*
%TO.C,R11*%
X131025000Y-89550000D03*
X129375000Y-89550000D03*
%TD*%
%TO.C,R23*%
X110125000Y-79200000D03*
X108475000Y-79200000D03*
%TD*%
D27*
%TO.C,R12*%
X127400000Y-75775000D03*
X127400000Y-77425000D03*
%TD*%
D11*
%TO.C,C16*%
X132175000Y-83900000D03*
X130625000Y-83900000D03*
%TD*%
D22*
%TO.C,R13*%
X127800000Y-89890000D03*
X127800000Y-88240000D03*
%TD*%
D16*
%TO.C,D3*%
X148300000Y-90987500D03*
X148300000Y-89412500D03*
%TD*%
D32*
%TO.C,SW1*%
X150050000Y-85250000D03*
X150050000Y-78750000D03*
X154550000Y-85250000D03*
X154550000Y-78750000D03*
%TD*%
D15*
%TO.C,R24*%
X145200000Y-74700000D03*
X146850000Y-74700000D03*
%TD*%
%TO.C,R25*%
X145200000Y-76300000D03*
X146850000Y-76300000D03*
%TD*%
D23*
%TO.C,U4*%
X125057500Y-93765000D03*
X125057500Y-93265000D03*
X125057500Y-92765000D03*
X125057500Y-92265000D03*
D24*
X124345000Y-91552500D03*
X123845000Y-91552500D03*
X123345000Y-91552500D03*
X122845000Y-91552500D03*
D23*
X122132500Y-92265000D03*
X122132500Y-92765000D03*
X122132500Y-93265000D03*
X122132500Y-93765000D03*
D24*
X122845000Y-94477500D03*
X123345000Y-94477500D03*
X123845000Y-94477500D03*
X124345000Y-94477500D03*
D25*
X123595000Y-93015000D03*
%TD*%
D33*
%TO.C,D2*%
X120512500Y-75000000D03*
X122087500Y-75000000D03*
%TD*%
D26*
%TO.C,L1*%
X128200000Y-91965000D03*
X128200000Y-94335000D03*
%TD*%
D10*
%TO.C,C9*%
X136750000Y-87775000D03*
X136750000Y-86225000D03*
%TD*%
D22*
%TO.C,R19*%
X133600000Y-93525000D03*
X133600000Y-91875000D03*
%TD*%
D10*
%TO.C,C18*%
X118200000Y-80875000D03*
X118200000Y-79325000D03*
%TD*%
D22*
%TO.C,R15*%
X125700000Y-77415000D03*
X125700000Y-75765000D03*
%TD*%
D18*
%TO.C,H2*%
X153650000Y-72300000D03*
X154133274Y-71133274D03*
X154133274Y-73466726D03*
X155300000Y-70650000D03*
D19*
X155300000Y-72300000D03*
D18*
X155300000Y-73950000D03*
X156466726Y-71133274D03*
X156466726Y-73466726D03*
X156950000Y-72300000D03*
%TD*%
D17*
%TO.C,C1*%
X117000000Y-94525000D03*
X117000000Y-96075000D03*
%TD*%
D22*
%TO.C,R3*%
X133600000Y-90425000D03*
X133600000Y-88775000D03*
%TD*%
D15*
%TO.C,R21*%
X149975000Y-90325000D03*
X151625000Y-90325000D03*
%TD*%
D34*
%TO.C,Y2*%
X112200000Y-93600000D03*
X110000000Y-93600000D03*
X110000000Y-95300000D03*
X112200000Y-95300000D03*
%TD*%
D18*
%TO.C,H1*%
X106000000Y-72250000D03*
X106483274Y-71083274D03*
X106483274Y-73416726D03*
X107650000Y-70600000D03*
D19*
X107650000Y-72250000D03*
D18*
X107650000Y-73900000D03*
X108816726Y-71083274D03*
X108816726Y-73416726D03*
X109300000Y-72250000D03*
%TD*%
D11*
%TO.C,C19*%
X124475000Y-89665000D03*
X122925000Y-89665000D03*
%TD*%
D20*
%TO.C,C12*%
X141525000Y-75400000D03*
X143075000Y-75400000D03*
%TD*%
D35*
%TO.C,U3*%
X140675000Y-94362500D03*
X141325000Y-94362500D03*
X141975000Y-94362500D03*
X142625000Y-94362500D03*
X143275000Y-94362500D03*
X143925000Y-94362500D03*
X144575000Y-94362500D03*
X145225000Y-94362500D03*
X145875000Y-94362500D03*
X146525000Y-94362500D03*
X146525000Y-88637500D03*
X145875000Y-88637500D03*
X145225000Y-88637500D03*
X144575000Y-88637500D03*
X143925000Y-88637500D03*
X143275000Y-88637500D03*
X142625000Y-88637500D03*
X141975000Y-88637500D03*
X141325000Y-88637500D03*
X140675000Y-88637500D03*
%TD*%
D36*
%TO.C,J1*%
X111455000Y-82610000D03*
X111455000Y-88390000D03*
D37*
X112575000Y-82300000D03*
X112575000Y-83100000D03*
D38*
X112575000Y-84250000D03*
X112575000Y-85250000D03*
X112575000Y-85750000D03*
X112575000Y-86750000D03*
D37*
X112575000Y-87900000D03*
X112575000Y-88700000D03*
X112575000Y-88700000D03*
X112575000Y-87900000D03*
D38*
X112575000Y-87250000D03*
X112575000Y-86250000D03*
X112575000Y-84750000D03*
X112575000Y-83750000D03*
D37*
X112575000Y-83100000D03*
X112575000Y-82300000D03*
D39*
X111975000Y-81180000D03*
D40*
X107775000Y-81180000D03*
D39*
X111975000Y-89820000D03*
D40*
X107775000Y-89820000D03*
%TD*%
M02*
