M48
; DRILL file {KiCad 8.0.2-8.0.2-0~ubuntu22.04.1} date 2024-06-03T20:12:11+0800
; FORMAT={-:-/ absolute / inch / decimal}
; #@! TF.CreationDate,2024-06-03T20:12:11+08:00
; #@! TF.GenerationSoftware,Kicad,Pcbnew,8.0.2-8.0.2-0~ubuntu22.04.1
; #@! TF.FileFunction,Plated,1,2,PTH
FMAT,2
INCH
; #@! TA.AperFunction,Plated,PTH,ComponentDrill
T1C0.0079
; #@! TA.AperFunction,Plated,PTH,ViaDrill
T2C0.0118
; #@! TA.AperFunction,Plated,PTH,ComponentDrill
T3C0.0157
; #@! TA.AperFunction,Plated,PTH,ComponentDrill
T4C0.0236
; #@! TA.AperFunction,Plated,PTH,ComponentDrill
T5C0.0256
; #@! TA.AperFunction,Plated,PTH,ComponentDrill
T6C0.0394
; #@! TA.AperFunction,Plated,PTH,ComponentDrill
T7C0.0433
; #@! TA.AperFunction,Plated,PTH,ComponentDrill
T8C0.0866
%
G90
G05
T1
X4.7469Y-3.1442
X4.7469Y-3.1906
X4.7934Y-3.1442
X4.7934Y-3.1906
X4.8427Y-3.6388
X4.8427Y-3.6852
X4.8892Y-3.6388
X4.8892Y-3.6852
T2
X4.3622Y-3.1614
X4.374Y-3.311
X4.4695Y-3.1654
X4.4882Y-3.7126
X4.4882Y-3.8031
X4.5315Y-3.2992
X4.5322Y-3.4141
X4.5325Y-3.1575
X4.5345Y-2.9651
X4.5531Y-3.3563
X4.561Y-3.2697
X4.5787Y-3.3858
X4.6122Y-3.2264
X4.6142Y-3.4173
X4.6142Y-3.5059
X4.6614Y-3.5591
X4.6634Y-3.6437
X4.6811Y-3.0
X4.7402Y-3.4606
X4.7598Y-3.2598
X4.8327Y-3.002
X4.8602Y-3.2598
X4.8859Y-3.7544
X4.9173Y-3.4173
X4.9528Y-3.3228
X4.9606Y-3.7539
X5.0039Y-3.7972
X5.0276Y-3.3346
X5.061Y-3.8209
X5.0748Y-3.2874
X5.0791Y-3.5665
X5.1024Y-3.0354
X5.1201Y-3.122
X5.1209Y-3.0669
X5.1417Y-3.0315
X5.1417Y-3.0906
X5.1417Y-3.7717
X5.1417Y-3.8189
X5.1591Y-3.4866
X5.1634Y-3.4429
X5.2008Y-3.7953
X5.2008Y-3.8425
X5.2205Y-3.4173
X5.248Y-3.0039
X5.2638Y-2.8976
X5.2717Y-3.3701
X5.2835Y-3.1946
X5.2963Y-3.043
X5.2992Y-3.2441
X5.3172Y-3.2182
X5.3277Y-3.0443
X5.3474Y-3.3553
X5.3574Y-3.0719
X5.3583Y-3.2183
X5.3622Y-3.7441
X5.3701Y-3.122
X5.3815Y-3.2432
X5.3858Y-3.3543
X5.3971Y-3.0438
X5.4213Y-3.0236
X5.4213Y-3.7156
X5.4331Y-3.4488
X5.4409Y-3.122
X5.4567Y-3.0236
X5.4685Y-3.2008
X5.4685Y-3.3543
X5.4764Y-3.122
X5.4803Y-3.05
X5.5182Y-3.532
X5.5472Y-3.6457
X5.5709Y-3.5827
X5.5807Y-3.2815
X5.6063Y-3.6654
X5.6152Y-3.1328
X5.6319Y-3.5827
X5.6339Y-3.6378
X5.685Y-3.5827
X5.815Y-3.4685
T3
X4.1732Y-2.8445
X4.1739Y-3.8957
X4.1923Y-2.7986
X4.1923Y-2.8904
X4.1929Y-3.8497
X4.1929Y-3.9416
X4.2382Y-2.7795
X4.2382Y-2.9094
X4.2388Y-3.8307
X4.2388Y-3.9606
X4.2841Y-2.7986
X4.2841Y-2.8904
X4.2848Y-3.8497
X4.2848Y-3.9416
X4.3031Y-2.8445
X4.3038Y-3.8957
X6.0492Y-2.8465
X6.0492Y-3.8937
X6.0682Y-2.8005
X6.0682Y-2.8924
X6.0682Y-3.8478
X6.0682Y-3.9396
X6.1142Y-2.7815
X6.1142Y-2.9114
X6.1142Y-3.8287
X6.1142Y-3.9587
X6.1601Y-2.8005
X6.1601Y-2.8924
X6.1601Y-3.8478
X6.1601Y-3.9396
X6.1791Y-2.8465
X6.1791Y-3.8937
T5
X4.2047Y-2.9921
X4.2047Y-3.0421
T6
X4.6087Y-3.8976
X4.6161Y-2.8406
X4.7087Y-3.8976
X4.7161Y-2.8406
X4.8087Y-3.8976
X4.8161Y-2.8406
X4.9087Y-3.8976
X4.9161Y-2.8406
X5.0087Y-3.8976
X5.0161Y-2.8406
X5.1087Y-3.8976
X5.1161Y-2.8406
X5.2087Y-3.8976
X5.2161Y-2.8406
X5.3087Y-3.8976
X5.3161Y-2.8406
X5.3622Y-3.5591
X5.3622Y-3.6591
X5.4087Y-3.8976
X5.4161Y-2.8406
X5.5087Y-3.8976
X5.5161Y-2.8406
X5.6087Y-3.8976
X5.6161Y-2.8406
X5.7087Y-3.8976
X5.7161Y-2.8406
X5.8087Y-3.8976
X5.8161Y-2.8406
X5.9087Y-3.8976
X5.9161Y-2.8406
T7
X5.9075Y-3.1004
X5.9075Y-3.3563
X6.0846Y-3.1004
X6.0846Y-3.3563
T8
X4.2382Y-2.8445
X4.2388Y-3.8957
X6.1142Y-2.8465
X6.1142Y-3.8937
T4
G00X4.2589Y-3.1961
M15
G01X4.2274Y-3.1961
M16
G05
G00X4.2589Y-3.5362
M15
G01X4.2274Y-3.5362
M16
G05
G00X4.4301Y-3.1961
M15
G01X4.3868Y-3.1961
M16
G05
G00X4.4301Y-3.5362
M15
G01X4.3868Y-3.5362
M16
G05
M30
