%TF.GenerationSoftware,KiCad,Pcbnew,8.0.2-8.0.2-0~ubuntu22.04.1*%
%TF.CreationDate,2024-06-03T20:12:09+08:00*%
%TF.ProjectId,pcb-stm32,7063622d-7374-46d3-9332-2e6b69636164,rev?*%
%TF.SameCoordinates,Original*%
%TF.FileFunction,Paste,Bot*%
%TF.FilePolarity,Positive*%
%FSLAX46Y46*%
G04 Gerber Fmt 4.6, Leading zero omitted, Abs format (unit mm)*
G04 Created by KiCad (PCBNEW 8.0.2-8.0.2-0~ubuntu22.04.1) date 2024-06-03 20:12:09*
%MOMM*%
%LPD*%
G01*
G04 APERTURE LIST*
G04 Aperture macros list*
%AMRoundRect*
0 Rectangle with rounded corners*
0 $1 Rounding radius*
0 $2 $3 $4 $5 $6 $7 $8 $9 X,Y pos of 4 corners*
0 Add a 4 corners polygon primitive as box body*
4,1,4,$2,$3,$4,$5,$6,$7,$8,$9,$2,$3,0*
0 Add four circle primitives for the rounded corners*
1,1,$1+$1,$2,$3*
1,1,$1+$1,$4,$5*
1,1,$1+$1,$6,$7*
1,1,$1+$1,$8,$9*
0 Add four rect primitives between the rounded corners*
20,1,$1+$1,$2,$3,$4,$5,0*
20,1,$1+$1,$4,$5,$6,$7,0*
20,1,$1+$1,$6,$7,$8,$9,0*
20,1,$1+$1,$8,$9,$2,$3,0*%
G04 Aperture macros list end*
%ADD10RoundRect,0.200000X0.275000X-0.200000X0.275000X0.200000X-0.275000X0.200000X-0.275000X-0.200000X0*%
%ADD11RoundRect,0.225000X0.225000X0.250000X-0.225000X0.250000X-0.225000X-0.250000X0.225000X-0.250000X0*%
%ADD12RoundRect,0.225000X-0.250000X0.225000X-0.250000X-0.225000X0.250000X-0.225000X0.250000X0.225000X0*%
%ADD13RoundRect,0.200000X-0.200000X-0.275000X0.200000X-0.275000X0.200000X0.275000X-0.200000X0.275000X0*%
%ADD14RoundRect,0.200000X0.200000X0.275000X-0.200000X0.275000X-0.200000X-0.275000X0.200000X-0.275000X0*%
%ADD15RoundRect,0.200000X-0.275000X0.200000X-0.275000X-0.200000X0.275000X-0.200000X0.275000X0.200000X0*%
%ADD16RoundRect,0.250000X0.295000X-0.295000X0.295000X0.295000X-0.295000X0.295000X-0.295000X-0.295000X0*%
%ADD17RoundRect,0.062500X0.062500X-0.350000X0.062500X0.350000X-0.062500X0.350000X-0.062500X-0.350000X0*%
%ADD18RoundRect,0.062500X0.350000X-0.062500X0.350000X0.062500X-0.350000X0.062500X-0.350000X-0.062500X0*%
G04 APERTURE END LIST*
D10*
%TO.C,R9*%
X112750000Y-73625000D03*
X112750000Y-71975000D03*
%TD*%
D11*
%TO.C,C6*%
X116125000Y-81400000D03*
X114575000Y-81400000D03*
%TD*%
D12*
%TO.C,C8*%
X116200000Y-78225000D03*
X116200000Y-79775000D03*
%TD*%
D13*
%TO.C,R10*%
X138275000Y-95700000D03*
X139925000Y-95700000D03*
%TD*%
D14*
%TO.C,R6*%
X109125000Y-79500000D03*
X107475000Y-79500000D03*
%TD*%
D15*
%TO.C,R5*%
X114350000Y-71975000D03*
X114350000Y-73625000D03*
%TD*%
D10*
%TO.C,R8*%
X111125000Y-73625000D03*
X111125000Y-71975000D03*
%TD*%
D16*
%TO.C,U1*%
X111850000Y-77750000D03*
X113200000Y-77750000D03*
X111850000Y-76400000D03*
X113200000Y-76400000D03*
D17*
X113775000Y-79037500D03*
X113275000Y-79037500D03*
X112775000Y-79037500D03*
X112275000Y-79037500D03*
X111775000Y-79037500D03*
X111275000Y-79037500D03*
D18*
X110562500Y-78325000D03*
X110562500Y-77825000D03*
X110562500Y-77325000D03*
X110562500Y-76825000D03*
X110562500Y-76325000D03*
X110562500Y-75825000D03*
D17*
X111275000Y-75112500D03*
X111775000Y-75112500D03*
X112275000Y-75112500D03*
X112775000Y-75112500D03*
X113275000Y-75112500D03*
X113775000Y-75112500D03*
D18*
X114487500Y-75825000D03*
X114487500Y-76325000D03*
X114487500Y-76825000D03*
X114487500Y-77325000D03*
X114487500Y-77825000D03*
X114487500Y-78325000D03*
%TD*%
D15*
%TO.C,R7*%
X109100000Y-75475000D03*
X109100000Y-77125000D03*
%TD*%
D11*
%TO.C,C7*%
X117775000Y-76700000D03*
X116225000Y-76700000D03*
%TD*%
M02*
