%TF.GenerationSoftware,KiCad,Pcbnew,8.0.2-8.0.2-0~ubuntu22.04.1*%
%TF.CreationDate,2024-06-03T20:12:09+08:00*%
%TF.ProjectId,pcb-stm32,7063622d-7374-46d3-9332-2e6b69636164,rev?*%
%TF.SameCoordinates,Original*%
%TF.FileFunction,Legend,Top*%
%TF.FilePolarity,Positive*%
%FSLAX46Y46*%
G04 Gerber Fmt 4.6, Leading zero omitted, Abs format (unit mm)*
G04 Created by KiCad (PCBNEW 8.0.2-8.0.2-0~ubuntu22.04.1) date 2024-06-03 20:12:09*
%MOMM*%
%LPD*%
G01*
G04 APERTURE LIST*
%ADD10C,0.200000*%
%ADD11C,0.120000*%
G04 APERTURE END LIST*
D10*
G36*
X143118946Y-74329734D02*
G01*
X143063991Y-74329734D01*
X143021533Y-74326987D01*
X142972455Y-74314774D01*
X142927534Y-74289358D01*
X142893510Y-74251577D01*
X142890384Y-74246601D01*
X142868952Y-74199134D01*
X142855408Y-74146430D01*
X142847668Y-74092958D01*
X142843947Y-74042547D01*
X142842707Y-73986817D01*
X142842757Y-73975170D01*
X142844493Y-73920148D01*
X142848710Y-73870480D01*
X142857045Y-73817947D01*
X142871284Y-73766403D01*
X142893510Y-73720348D01*
X142923216Y-73686048D01*
X142966926Y-73659173D01*
X143014927Y-73645698D01*
X143063991Y-73641946D01*
X143118946Y-73641946D01*
X143118946Y-74329734D01*
G37*
G36*
X145130755Y-74628424D02*
G01*
X142520815Y-74628424D01*
X142520815Y-73986817D01*
X142631926Y-73986817D01*
X142632034Y-74003780D01*
X142634627Y-74068634D01*
X142640677Y-74128695D01*
X142650186Y-74183962D01*
X142663152Y-74234437D01*
X142684221Y-74290789D01*
X142710693Y-74339652D01*
X142742568Y-74381025D01*
X142749620Y-74388448D01*
X142789004Y-74422029D01*
X142835258Y-74449719D01*
X142888381Y-74471517D01*
X142935825Y-74484714D01*
X142987665Y-74494140D01*
X143043902Y-74499796D01*
X143104535Y-74501681D01*
X143321667Y-74501681D01*
X143493859Y-74501681D01*
X143672644Y-74501681D01*
X143672644Y-73751856D01*
X143958408Y-74501681D01*
X144176029Y-74501681D01*
X144176029Y-73550355D01*
X144323796Y-73550355D01*
X144323796Y-74017103D01*
X144639846Y-74017103D01*
X144639846Y-73845157D01*
X144500872Y-73845157D01*
X144500872Y-73649518D01*
X144538729Y-73631933D01*
X144544664Y-73630616D01*
X144593684Y-73626315D01*
X144631308Y-73629535D01*
X144681143Y-73646440D01*
X144723056Y-73677835D01*
X144753663Y-73717906D01*
X144760318Y-73729714D01*
X144780228Y-73776209D01*
X144794879Y-73830746D01*
X144803251Y-73883892D01*
X144807276Y-73932693D01*
X144808618Y-73985596D01*
X144808562Y-73996833D01*
X144806617Y-74050320D01*
X144801893Y-74099310D01*
X144792557Y-74152164D01*
X144776607Y-74205644D01*
X144751709Y-74255973D01*
X144723923Y-74290805D01*
X144680024Y-74323018D01*
X144633282Y-74339779D01*
X144579274Y-74345366D01*
X144554922Y-74344396D01*
X144504752Y-74335636D01*
X144458129Y-74317766D01*
X144434492Y-74304501D01*
X144393882Y-74272982D01*
X144360188Y-74235945D01*
X144360188Y-74454787D01*
X144380055Y-74465646D01*
X144424925Y-74485757D01*
X144472295Y-74501193D01*
X144494721Y-74506671D01*
X144543840Y-74514652D01*
X144593684Y-74517313D01*
X144619164Y-74516780D01*
X144679540Y-74510780D01*
X144735169Y-74498113D01*
X144786053Y-74478780D01*
X144832189Y-74452780D01*
X144873579Y-74420114D01*
X144910223Y-74380781D01*
X144923473Y-74363238D01*
X144952858Y-74315205D01*
X144976901Y-74261209D01*
X144992288Y-74213719D01*
X145004256Y-74162413D01*
X145012805Y-74107290D01*
X145017934Y-74048351D01*
X145019644Y-73985596D01*
X145019538Y-73969788D01*
X145016996Y-73908833D01*
X145011066Y-73851518D01*
X145001746Y-73797843D01*
X144989038Y-73747810D01*
X144968387Y-73690388D01*
X144942441Y-73638654D01*
X144911200Y-73592609D01*
X144897261Y-73575869D01*
X144859324Y-73538744D01*
X144816975Y-73508369D01*
X144770214Y-73484743D01*
X144719040Y-73467868D01*
X144663453Y-73457743D01*
X144603454Y-73454368D01*
X144554209Y-73456729D01*
X144502299Y-73464781D01*
X144452756Y-73478548D01*
X144409832Y-73496055D01*
X144365371Y-73520492D01*
X144323796Y-73550355D01*
X144176029Y-73550355D01*
X144176029Y-73470000D01*
X143997487Y-73470000D01*
X143997487Y-74219825D01*
X143710258Y-73470000D01*
X143493859Y-73470000D01*
X143493859Y-74501681D01*
X143321667Y-74501681D01*
X143321667Y-73470000D01*
X143104535Y-73470000D01*
X143043902Y-73471892D01*
X142987665Y-73477571D01*
X142935825Y-73487035D01*
X142877206Y-73504190D01*
X142825457Y-73527259D01*
X142780578Y-73556244D01*
X142742568Y-73591144D01*
X142722795Y-73615248D01*
X142694162Y-73661394D01*
X142670931Y-73715006D01*
X142656237Y-73763271D01*
X142644999Y-73816313D01*
X142637220Y-73874134D01*
X142632898Y-73936733D01*
X142631926Y-73986817D01*
X142520815Y-73986817D01*
X142520815Y-73343257D01*
X145130755Y-73343257D01*
X145130755Y-74628424D01*
G37*
G36*
X135025137Y-74628424D02*
G01*
X132448902Y-74628424D01*
X132448902Y-73761381D01*
X132560013Y-73761381D01*
X132562048Y-73801727D01*
X132571093Y-73850820D01*
X132589917Y-73899626D01*
X132617899Y-73941632D01*
X132645618Y-73969298D01*
X132688607Y-73997930D01*
X132733762Y-74016829D01*
X132785450Y-74029560D01*
X132767664Y-74033253D01*
X132719046Y-74048531D01*
X132673365Y-74072893D01*
X132636461Y-74105031D01*
X132633246Y-74108666D01*
X132604611Y-74152899D01*
X132589298Y-74199872D01*
X132584193Y-74253286D01*
X132584282Y-74260958D01*
X132589857Y-74311737D01*
X132606847Y-74363501D01*
X132635164Y-74408579D01*
X132674808Y-74446971D01*
X132680541Y-74451299D01*
X132724587Y-74477745D01*
X132775483Y-74497460D01*
X132824558Y-74509001D01*
X132878666Y-74515595D01*
X132927599Y-74517313D01*
X132959564Y-74516550D01*
X133008772Y-74512542D01*
X133059490Y-74505101D01*
X133076774Y-74501681D01*
X133349895Y-74501681D01*
X133554082Y-74501681D01*
X133734577Y-73639993D01*
X133914584Y-74501681D01*
X134118771Y-74501681D01*
X133943686Y-73761381D01*
X134244312Y-73761381D01*
X134246347Y-73801727D01*
X134255392Y-73850820D01*
X134274216Y-73899626D01*
X134302198Y-73941632D01*
X134329917Y-73969298D01*
X134372906Y-73997930D01*
X134418060Y-74016829D01*
X134469748Y-74029560D01*
X134451962Y-74033253D01*
X134403345Y-74048531D01*
X134357664Y-74072893D01*
X134320760Y-74105031D01*
X134317544Y-74108666D01*
X134288909Y-74152899D01*
X134273596Y-74199872D01*
X134268492Y-74253286D01*
X134268581Y-74260958D01*
X134274156Y-74311737D01*
X134291146Y-74363501D01*
X134319463Y-74408579D01*
X134359106Y-74446971D01*
X134364840Y-74451299D01*
X134408886Y-74477745D01*
X134459781Y-74497460D01*
X134508857Y-74509001D01*
X134562964Y-74515595D01*
X134611898Y-74517313D01*
X134643863Y-74516550D01*
X134693070Y-74512542D01*
X134743789Y-74505101D01*
X134786899Y-74496571D01*
X134834815Y-74484765D01*
X134883251Y-74470418D01*
X134883251Y-74282840D01*
X134843796Y-74298854D01*
X134796622Y-74315278D01*
X134746475Y-74329246D01*
X134726070Y-74333890D01*
X134674914Y-74342280D01*
X134622889Y-74345366D01*
X134604494Y-74344866D01*
X134552092Y-74336336D01*
X134505652Y-74313370D01*
X134474511Y-74275329D01*
X134464131Y-74224710D01*
X134473254Y-74179244D01*
X134505652Y-74140690D01*
X134522425Y-74130564D01*
X134570911Y-74115083D01*
X134622889Y-74110893D01*
X134731332Y-74110893D01*
X134731332Y-73938946D01*
X134622889Y-73938946D01*
X134576579Y-73935468D01*
X134528531Y-73921772D01*
X134486845Y-73894982D01*
X134463586Y-73867354D01*
X134444415Y-73821502D01*
X134438729Y-73770418D01*
X134439481Y-73754294D01*
X134453954Y-73704533D01*
X134486845Y-73665150D01*
X134516615Y-73646377D01*
X134564723Y-73630904D01*
X134617271Y-73626315D01*
X134622423Y-73626330D01*
X134673132Y-73628191D01*
X134722362Y-73633152D01*
X134774808Y-73642191D01*
X134820517Y-73653673D01*
X134868484Y-73669554D01*
X134914026Y-73688841D01*
X134914026Y-73501263D01*
X134870487Y-73488115D01*
X134821106Y-73476078D01*
X134770167Y-73466580D01*
X134722912Y-73460140D01*
X134670380Y-73455811D01*
X134617271Y-73454368D01*
X134594864Y-73454675D01*
X134541800Y-73458131D01*
X134483697Y-73467348D01*
X134431674Y-73482094D01*
X134385729Y-73502370D01*
X134339811Y-73533014D01*
X134307356Y-73565005D01*
X134277979Y-73608644D01*
X134257742Y-73659085D01*
X134247670Y-73707735D01*
X134244312Y-73761381D01*
X133943686Y-73761381D01*
X133874773Y-73470000D01*
X133593893Y-73470000D01*
X133349895Y-74501681D01*
X133076774Y-74501681D01*
X133102600Y-74496571D01*
X133150517Y-74484765D01*
X133198953Y-74470418D01*
X133198953Y-74282840D01*
X133159497Y-74298854D01*
X133112323Y-74315278D01*
X133062177Y-74329246D01*
X133041772Y-74333890D01*
X132990616Y-74342280D01*
X132938590Y-74345366D01*
X132920195Y-74344866D01*
X132867793Y-74336336D01*
X132821353Y-74313370D01*
X132790212Y-74275329D01*
X132779832Y-74224710D01*
X132788955Y-74179244D01*
X132821353Y-74140690D01*
X132838126Y-74130564D01*
X132886612Y-74115083D01*
X132938590Y-74110893D01*
X133047034Y-74110893D01*
X133047034Y-73938946D01*
X132938590Y-73938946D01*
X132892280Y-73935468D01*
X132844232Y-73921772D01*
X132802547Y-73894982D01*
X132779287Y-73867354D01*
X132760116Y-73821502D01*
X132754431Y-73770418D01*
X132755183Y-73754294D01*
X132769655Y-73704533D01*
X132802547Y-73665150D01*
X132832317Y-73646377D01*
X132880425Y-73630904D01*
X132932972Y-73626315D01*
X132938125Y-73626330D01*
X132988834Y-73628191D01*
X133038064Y-73633152D01*
X133090509Y-73642191D01*
X133136219Y-73653673D01*
X133184185Y-73669554D01*
X133229727Y-73688841D01*
X133229727Y-73501263D01*
X133186188Y-73488115D01*
X133136807Y-73476078D01*
X133085868Y-73466580D01*
X133038613Y-73460140D01*
X132986081Y-73455811D01*
X132932972Y-73454368D01*
X132910565Y-73454675D01*
X132857502Y-73458131D01*
X132799399Y-73467348D01*
X132747375Y-73482094D01*
X132701431Y-73502370D01*
X132655512Y-73533014D01*
X132623058Y-73565005D01*
X132593681Y-73608644D01*
X132573443Y-73659085D01*
X132563371Y-73707735D01*
X132560013Y-73761381D01*
X132448902Y-73761381D01*
X132448902Y-73343257D01*
X135025137Y-73343257D01*
X135025137Y-74628424D01*
G37*
G36*
X134428363Y-97162150D02*
G01*
X134476282Y-97175273D01*
X134517969Y-97205994D01*
X134534338Y-97227046D01*
X134554071Y-97273523D01*
X134559979Y-97324940D01*
X134558493Y-97351207D01*
X134545082Y-97401696D01*
X134517725Y-97443398D01*
X134503894Y-97456626D01*
X134458507Y-97481737D01*
X134407571Y-97489316D01*
X134386914Y-97488212D01*
X134339178Y-97475019D01*
X134297418Y-97444131D01*
X134281144Y-97422900D01*
X134261525Y-97376277D01*
X134255652Y-97324940D01*
X134257120Y-97298210D01*
X134270376Y-97247305D01*
X134297418Y-97205994D01*
X134311184Y-97193047D01*
X134356517Y-97168470D01*
X134407571Y-97161053D01*
X134428363Y-97162150D01*
G37*
G36*
X134411316Y-96739036D02*
G01*
X134461488Y-96747855D01*
X134502581Y-96774417D01*
X134506781Y-96778944D01*
X134530626Y-96822373D01*
X134537264Y-96870893D01*
X134537230Y-96874715D01*
X134528593Y-96926092D01*
X134502581Y-96968590D01*
X134500389Y-96970814D01*
X134458494Y-96996795D01*
X134407571Y-97004738D01*
X134403856Y-97004703D01*
X134354021Y-96995701D01*
X134313049Y-96968590D01*
X134308849Y-96963972D01*
X134285005Y-96919886D01*
X134278367Y-96870893D01*
X134278401Y-96867146D01*
X134287098Y-96816732D01*
X134313293Y-96774905D01*
X134315515Y-96772696D01*
X134357418Y-96746891D01*
X134407571Y-96739002D01*
X134411316Y-96739036D01*
G37*
G36*
X134853783Y-97756742D02*
G01*
X132318093Y-97756742D01*
X132318093Y-97458053D01*
X132429204Y-97458053D01*
X132429204Y-97630000D01*
X133079623Y-97630000D01*
X133079623Y-97458053D01*
X132852965Y-97458053D01*
X132852965Y-96598318D01*
X133181228Y-96598318D01*
X133425226Y-97630000D01*
X133706106Y-97630000D01*
X133775828Y-97335198D01*
X134072958Y-97335198D01*
X134075087Y-97379959D01*
X134083262Y-97429326D01*
X134100547Y-97480931D01*
X134126178Y-97526085D01*
X134160153Y-97564787D01*
X134201795Y-97596288D01*
X134250427Y-97620051D01*
X134297673Y-97634262D01*
X134350055Y-97642789D01*
X134407571Y-97645631D01*
X134465253Y-97642789D01*
X134517767Y-97634262D01*
X134565111Y-97620051D01*
X134613812Y-97596288D01*
X134655478Y-97564787D01*
X134685110Y-97532009D01*
X134711933Y-97487777D01*
X134730410Y-97437093D01*
X134739607Y-97388516D01*
X134742672Y-97335198D01*
X134742249Y-97317668D01*
X134735906Y-97267936D01*
X134719930Y-97217709D01*
X134694556Y-97172777D01*
X134688426Y-97164452D01*
X134653398Y-97127691D01*
X134611070Y-97099040D01*
X134561444Y-97078499D01*
X134601430Y-97060912D01*
X134642483Y-97033066D01*
X134677459Y-96994724D01*
X134700126Y-96952655D01*
X134713383Y-96904699D01*
X134717271Y-96855994D01*
X134717190Y-96848139D01*
X134712066Y-96796063D01*
X134696449Y-96742787D01*
X134670422Y-96696168D01*
X134633984Y-96656203D01*
X134606560Y-96635024D01*
X134563219Y-96611404D01*
X134514103Y-96594819D01*
X134459214Y-96585271D01*
X134407571Y-96582686D01*
X134372782Y-96583835D01*
X134324090Y-96589866D01*
X134272578Y-96603435D01*
X134226770Y-96624040D01*
X134181402Y-96656203D01*
X134171346Y-96665570D01*
X134137610Y-96707199D01*
X134114254Y-96755482D01*
X134102333Y-96803190D01*
X134098360Y-96855994D01*
X134099439Y-96870893D01*
X134101567Y-96900284D01*
X134114197Y-96948959D01*
X134138904Y-96995212D01*
X134171165Y-97030619D01*
X134212200Y-97058926D01*
X134257117Y-97078499D01*
X134246457Y-97081870D01*
X134197560Y-97103675D01*
X134156010Y-97133733D01*
X134121807Y-97172044D01*
X134113077Y-97184974D01*
X134090179Y-97231609D01*
X134076822Y-97283683D01*
X134073727Y-97324940D01*
X134072958Y-97335198D01*
X133775828Y-97335198D01*
X133950104Y-96598318D01*
X133745917Y-96598318D01*
X133565422Y-97460006D01*
X133385415Y-96598318D01*
X133181228Y-96598318D01*
X132852965Y-96598318D01*
X132657083Y-96598318D01*
X132444836Y-96645212D01*
X132444836Y-96817159D01*
X132655861Y-96770265D01*
X132655861Y-97458053D01*
X132429204Y-97458053D01*
X132318093Y-97458053D01*
X132318093Y-96471575D01*
X134853783Y-96471575D01*
X134853783Y-97756742D01*
G37*
G36*
X144578466Y-96773012D02*
G01*
X144627544Y-96785225D01*
X144672465Y-96810641D01*
X144706489Y-96848422D01*
X144709615Y-96853398D01*
X144731047Y-96900865D01*
X144744591Y-96953569D01*
X144752331Y-97007041D01*
X144756052Y-97057452D01*
X144757292Y-97113182D01*
X144757242Y-97124829D01*
X144755506Y-97179851D01*
X144751289Y-97229519D01*
X144742954Y-97282052D01*
X144728715Y-97333596D01*
X144706489Y-97379651D01*
X144676783Y-97413951D01*
X144633073Y-97440826D01*
X144585072Y-97454301D01*
X144536008Y-97458053D01*
X144481053Y-97458053D01*
X144481053Y-96770265D01*
X144536008Y-96770265D01*
X144578466Y-96773012D01*
G37*
G36*
X145079184Y-97756742D02*
G01*
X142469244Y-97756742D01*
X142469244Y-97114403D01*
X142580355Y-97114403D01*
X142580461Y-97130211D01*
X142583003Y-97191166D01*
X142588933Y-97248481D01*
X142598253Y-97302156D01*
X142610961Y-97352189D01*
X142631612Y-97409611D01*
X142657558Y-97461345D01*
X142688799Y-97507390D01*
X142702738Y-97524130D01*
X142740675Y-97561255D01*
X142783024Y-97591630D01*
X142829785Y-97615256D01*
X142880959Y-97632131D01*
X142936546Y-97642256D01*
X142996545Y-97645631D01*
X143045790Y-97643270D01*
X143097700Y-97635218D01*
X143116478Y-97630000D01*
X143423970Y-97630000D01*
X143602512Y-97630000D01*
X143602512Y-96880174D01*
X143889741Y-97630000D01*
X144106140Y-97630000D01*
X144106140Y-97458053D01*
X144278332Y-97458053D01*
X144278332Y-97630000D01*
X144495464Y-97630000D01*
X144556097Y-97628107D01*
X144612334Y-97622428D01*
X144664174Y-97612964D01*
X144722793Y-97595809D01*
X144774542Y-97572740D01*
X144819421Y-97543755D01*
X144857431Y-97508855D01*
X144877204Y-97484751D01*
X144905837Y-97438605D01*
X144929068Y-97384993D01*
X144943762Y-97336728D01*
X144955000Y-97283686D01*
X144962779Y-97225865D01*
X144967101Y-97163266D01*
X144968073Y-97113182D01*
X144967965Y-97096219D01*
X144965372Y-97031365D01*
X144959322Y-96971304D01*
X144949813Y-96916037D01*
X144936847Y-96865562D01*
X144915778Y-96809210D01*
X144889306Y-96760347D01*
X144857431Y-96718974D01*
X144850379Y-96711551D01*
X144810995Y-96677970D01*
X144764741Y-96650280D01*
X144711618Y-96628482D01*
X144664174Y-96615285D01*
X144612334Y-96605859D01*
X144556097Y-96600203D01*
X144495464Y-96598318D01*
X144278332Y-96598318D01*
X144278332Y-97458053D01*
X144106140Y-97458053D01*
X144106140Y-96598318D01*
X143927355Y-96598318D01*
X143927355Y-97348143D01*
X143641591Y-96598318D01*
X143423970Y-96598318D01*
X143423970Y-97630000D01*
X143116478Y-97630000D01*
X143147243Y-97621451D01*
X143190167Y-97603944D01*
X143234628Y-97579507D01*
X143276203Y-97549644D01*
X143276203Y-97082896D01*
X142960153Y-97082896D01*
X142960153Y-97254842D01*
X143099127Y-97254842D01*
X143099127Y-97450481D01*
X143061270Y-97468066D01*
X143055335Y-97469383D01*
X143006315Y-97473684D01*
X142968691Y-97470464D01*
X142918856Y-97453559D01*
X142876943Y-97422164D01*
X142846336Y-97382093D01*
X142839681Y-97370285D01*
X142819771Y-97323790D01*
X142805120Y-97269253D01*
X142796748Y-97216107D01*
X142792723Y-97167306D01*
X142791381Y-97114403D01*
X142791437Y-97103166D01*
X142793382Y-97049679D01*
X142798106Y-97000689D01*
X142807442Y-96947835D01*
X142823392Y-96894355D01*
X142848290Y-96844026D01*
X142876076Y-96809194D01*
X142919975Y-96776981D01*
X142966717Y-96760220D01*
X143020725Y-96754633D01*
X143045077Y-96755603D01*
X143095247Y-96764363D01*
X143141870Y-96782233D01*
X143165507Y-96795498D01*
X143206117Y-96827017D01*
X143239811Y-96864054D01*
X143239811Y-96645212D01*
X143219944Y-96634353D01*
X143175074Y-96614242D01*
X143127704Y-96598806D01*
X143105278Y-96593328D01*
X143056159Y-96585347D01*
X143006315Y-96582686D01*
X142980835Y-96583219D01*
X142920459Y-96589219D01*
X142864830Y-96601886D01*
X142813946Y-96621219D01*
X142767810Y-96647219D01*
X142726420Y-96679885D01*
X142689776Y-96719218D01*
X142676526Y-96736761D01*
X142647141Y-96784794D01*
X142623098Y-96838790D01*
X142607711Y-96886280D01*
X142595743Y-96937586D01*
X142587194Y-96992709D01*
X142582065Y-97051648D01*
X142580355Y-97114403D01*
X142469244Y-97114403D01*
X142469244Y-96471575D01*
X145079184Y-96471575D01*
X145079184Y-97756742D01*
G37*
D11*
%TO.C,C5*%
X107590000Y-94690580D02*
X107590000Y-94409420D01*
X108610000Y-94690580D02*
X108610000Y-94409420D01*
%TO.C,C3*%
X150940580Y-88190000D02*
X150659420Y-88190000D01*
X150940580Y-89210000D02*
X150659420Y-89210000D01*
%TO.C,C10*%
X134690000Y-87140580D02*
X134690000Y-86859420D01*
X135710000Y-87140580D02*
X135710000Y-86859420D01*
%TO.C,C20*%
X121290580Y-76840000D02*
X121009420Y-76840000D01*
X121290580Y-77860000D02*
X121009420Y-77860000D01*
%TO.C,J3*%
X115730000Y-100440000D02*
X115730000Y-103100000D01*
X115730000Y-103100000D02*
X151410000Y-103100000D01*
X116680000Y-100042929D02*
X116680000Y-100440000D01*
X116680000Y-109100000D02*
X116680000Y-103100000D01*
X117440000Y-100042929D02*
X117440000Y-100440000D01*
X117440000Y-103100000D02*
X117440000Y-109100000D01*
X117440000Y-109100000D02*
X116680000Y-109100000D01*
X118330000Y-100440000D02*
X118330000Y-103100000D01*
X119220000Y-100042929D02*
X119220000Y-100440000D01*
X119220000Y-109100000D02*
X119220000Y-103100000D01*
X119980000Y-100042929D02*
X119980000Y-100440000D01*
X119980000Y-103100000D02*
X119980000Y-109100000D01*
X119980000Y-109100000D02*
X119220000Y-109100000D01*
X120870000Y-100440000D02*
X120870000Y-103100000D01*
X121760000Y-100042929D02*
X121760000Y-100440000D01*
X121760000Y-109100000D02*
X121760000Y-103100000D01*
X122520000Y-100042929D02*
X122520000Y-100440000D01*
X122520000Y-103100000D02*
X122520000Y-109100000D01*
X122520000Y-109100000D02*
X121760000Y-109100000D01*
X123410000Y-100440000D02*
X123410000Y-103100000D01*
X124300000Y-100042929D02*
X124300000Y-100440000D01*
X124300000Y-109100000D02*
X124300000Y-103100000D01*
X125060000Y-100042929D02*
X125060000Y-100440000D01*
X125060000Y-103100000D02*
X125060000Y-109100000D01*
X125060000Y-109100000D02*
X124300000Y-109100000D01*
X125950000Y-100440000D02*
X125950000Y-103100000D01*
X126840000Y-100042929D02*
X126840000Y-100440000D01*
X126840000Y-109100000D02*
X126840000Y-103100000D01*
X127600000Y-100042929D02*
X127600000Y-100440000D01*
X127600000Y-103100000D02*
X127600000Y-109100000D01*
X127600000Y-109100000D02*
X126840000Y-109100000D01*
X128490000Y-100440000D02*
X128490000Y-103100000D01*
X129380000Y-100042929D02*
X129380000Y-100440000D01*
X129380000Y-109100000D02*
X129380000Y-103100000D01*
X130140000Y-100042929D02*
X130140000Y-100440000D01*
X130140000Y-103100000D02*
X130140000Y-109100000D01*
X130140000Y-109100000D02*
X129380000Y-109100000D01*
X131030000Y-100440000D02*
X131030000Y-103100000D01*
X131920000Y-100042929D02*
X131920000Y-100440000D01*
X131920000Y-109100000D02*
X131920000Y-103100000D01*
X132680000Y-100042929D02*
X132680000Y-100440000D01*
X132680000Y-103100000D02*
X132680000Y-109100000D01*
X132680000Y-109100000D02*
X131920000Y-109100000D01*
X133570000Y-100440000D02*
X133570000Y-103100000D01*
X134460000Y-100042929D02*
X134460000Y-100440000D01*
X134460000Y-109100000D02*
X134460000Y-103100000D01*
X135220000Y-100042929D02*
X135220000Y-100440000D01*
X135220000Y-103100000D02*
X135220000Y-109100000D01*
X135220000Y-109100000D02*
X134460000Y-109100000D01*
X136110000Y-100440000D02*
X136110000Y-103100000D01*
X137000000Y-100042929D02*
X137000000Y-100440000D01*
X137000000Y-109100000D02*
X137000000Y-103100000D01*
X137760000Y-100042929D02*
X137760000Y-100440000D01*
X137760000Y-103100000D02*
X137760000Y-109100000D01*
X137760000Y-109100000D02*
X137000000Y-109100000D01*
X138650000Y-100440000D02*
X138650000Y-103100000D01*
X139540000Y-100042929D02*
X139540000Y-100440000D01*
X139540000Y-109100000D02*
X139540000Y-103100000D01*
X140300000Y-100042929D02*
X140300000Y-100440000D01*
X140300000Y-103100000D02*
X140300000Y-109100000D01*
X140300000Y-109100000D02*
X139540000Y-109100000D01*
X141190000Y-100440000D02*
X141190000Y-103100000D01*
X142080000Y-100042929D02*
X142080000Y-100440000D01*
X142080000Y-109100000D02*
X142080000Y-103100000D01*
X142840000Y-100042929D02*
X142840000Y-100440000D01*
X142840000Y-103100000D02*
X142840000Y-109100000D01*
X142840000Y-109100000D02*
X142080000Y-109100000D01*
X143730000Y-100440000D02*
X143730000Y-103100000D01*
X144620000Y-100042929D02*
X144620000Y-100440000D01*
X144620000Y-109100000D02*
X144620000Y-103100000D01*
X145380000Y-100042929D02*
X145380000Y-100440000D01*
X145380000Y-103100000D02*
X145380000Y-109100000D01*
X145380000Y-109100000D02*
X144620000Y-109100000D01*
X146270000Y-100440000D02*
X146270000Y-103100000D01*
X147160000Y-100042929D02*
X147160000Y-100440000D01*
X147160000Y-109100000D02*
X147160000Y-103100000D01*
X147920000Y-100042929D02*
X147920000Y-100440000D01*
X147920000Y-103100000D02*
X147920000Y-109100000D01*
X147920000Y-109100000D02*
X147160000Y-109100000D01*
X148810000Y-100440000D02*
X148810000Y-103100000D01*
X149700000Y-100110000D02*
X149700000Y-100440000D01*
X149700000Y-109100000D02*
X149700000Y-103100000D01*
X149800000Y-103100000D02*
X149800000Y-109100000D01*
X149920000Y-103100000D02*
X149920000Y-109100000D01*
X150040000Y-103100000D02*
X150040000Y-109100000D01*
X150080000Y-97730000D02*
X151350000Y-97730000D01*
X150160000Y-103100000D02*
X150160000Y-109100000D01*
X150280000Y-103100000D02*
X150280000Y-109100000D01*
X150400000Y-103100000D02*
X150400000Y-109100000D01*
X150460000Y-100110000D02*
X150460000Y-100440000D01*
X150460000Y-103100000D02*
X150460000Y-109100000D01*
X150460000Y-109100000D02*
X149700000Y-109100000D01*
X151350000Y-97730000D02*
X151350000Y-99000000D01*
X151410000Y-100440000D02*
X115730000Y-100440000D01*
X151410000Y-103100000D02*
X151410000Y-100440000D01*
%TO.C,R26*%
X126437258Y-85177500D02*
X125962742Y-85177500D01*
X126437258Y-86222500D02*
X125962742Y-86222500D01*
%TO.C,C13*%
X131040580Y-74890000D02*
X130759420Y-74890000D01*
X131040580Y-75910000D02*
X130759420Y-75910000D01*
%TO.C,J2*%
X115920000Y-68050000D02*
X115920000Y-70710000D01*
X115920000Y-70710000D02*
X151600000Y-70710000D01*
X115980000Y-73420000D02*
X115980000Y-72150000D01*
X116870000Y-62050000D02*
X117630000Y-62050000D01*
X116870000Y-68050000D02*
X116870000Y-62050000D01*
X116870000Y-71040000D02*
X116870000Y-70710000D01*
X116930000Y-68050000D02*
X116930000Y-62050000D01*
X117050000Y-68050000D02*
X117050000Y-62050000D01*
X117170000Y-68050000D02*
X117170000Y-62050000D01*
X117250000Y-73420000D02*
X115980000Y-73420000D01*
X117290000Y-68050000D02*
X117290000Y-62050000D01*
X117410000Y-68050000D02*
X117410000Y-62050000D01*
X117530000Y-68050000D02*
X117530000Y-62050000D01*
X117630000Y-62050000D02*
X117630000Y-68050000D01*
X117630000Y-71040000D02*
X117630000Y-70710000D01*
X118520000Y-70710000D02*
X118520000Y-68050000D01*
X119410000Y-62050000D02*
X120170000Y-62050000D01*
X119410000Y-68050000D02*
X119410000Y-62050000D01*
X119410000Y-71107071D02*
X119410000Y-70710000D01*
X120170000Y-62050000D02*
X120170000Y-68050000D01*
X120170000Y-71107071D02*
X120170000Y-70710000D01*
X121060000Y-70710000D02*
X121060000Y-68050000D01*
X121950000Y-62050000D02*
X122710000Y-62050000D01*
X121950000Y-68050000D02*
X121950000Y-62050000D01*
X121950000Y-71107071D02*
X121950000Y-70710000D01*
X122710000Y-62050000D02*
X122710000Y-68050000D01*
X122710000Y-71107071D02*
X122710000Y-70710000D01*
X123600000Y-70710000D02*
X123600000Y-68050000D01*
X124490000Y-62050000D02*
X125250000Y-62050000D01*
X124490000Y-68050000D02*
X124490000Y-62050000D01*
X124490000Y-71107071D02*
X124490000Y-70710000D01*
X125250000Y-62050000D02*
X125250000Y-68050000D01*
X125250000Y-71107071D02*
X125250000Y-70710000D01*
X126140000Y-70710000D02*
X126140000Y-68050000D01*
X127030000Y-62050000D02*
X127790000Y-62050000D01*
X127030000Y-68050000D02*
X127030000Y-62050000D01*
X127030000Y-71107071D02*
X127030000Y-70710000D01*
X127790000Y-62050000D02*
X127790000Y-68050000D01*
X127790000Y-71107071D02*
X127790000Y-70710000D01*
X128680000Y-70710000D02*
X128680000Y-68050000D01*
X129570000Y-62050000D02*
X130330000Y-62050000D01*
X129570000Y-68050000D02*
X129570000Y-62050000D01*
X129570000Y-71107071D02*
X129570000Y-70710000D01*
X130330000Y-62050000D02*
X130330000Y-68050000D01*
X130330000Y-71107071D02*
X130330000Y-70710000D01*
X131220000Y-70710000D02*
X131220000Y-68050000D01*
X132110000Y-62050000D02*
X132870000Y-62050000D01*
X132110000Y-68050000D02*
X132110000Y-62050000D01*
X132110000Y-71107071D02*
X132110000Y-70710000D01*
X132870000Y-62050000D02*
X132870000Y-68050000D01*
X132870000Y-71107071D02*
X132870000Y-70710000D01*
X133760000Y-70710000D02*
X133760000Y-68050000D01*
X134650000Y-62050000D02*
X135410000Y-62050000D01*
X134650000Y-68050000D02*
X134650000Y-62050000D01*
X134650000Y-71107071D02*
X134650000Y-70710000D01*
X135410000Y-62050000D02*
X135410000Y-68050000D01*
X135410000Y-71107071D02*
X135410000Y-70710000D01*
X136300000Y-70710000D02*
X136300000Y-68050000D01*
X137190000Y-62050000D02*
X137950000Y-62050000D01*
X137190000Y-68050000D02*
X137190000Y-62050000D01*
X137190000Y-71107071D02*
X137190000Y-70710000D01*
X137950000Y-62050000D02*
X137950000Y-68050000D01*
X137950000Y-71107071D02*
X137950000Y-70710000D01*
X138840000Y-70710000D02*
X138840000Y-68050000D01*
X139730000Y-62050000D02*
X140490000Y-62050000D01*
X139730000Y-68050000D02*
X139730000Y-62050000D01*
X139730000Y-71107071D02*
X139730000Y-70710000D01*
X140490000Y-62050000D02*
X140490000Y-68050000D01*
X140490000Y-71107071D02*
X140490000Y-70710000D01*
X141380000Y-70710000D02*
X141380000Y-68050000D01*
X142270000Y-62050000D02*
X143030000Y-62050000D01*
X142270000Y-68050000D02*
X142270000Y-62050000D01*
X142270000Y-71107071D02*
X142270000Y-70710000D01*
X143030000Y-62050000D02*
X143030000Y-68050000D01*
X143030000Y-71107071D02*
X143030000Y-70710000D01*
X143920000Y-70710000D02*
X143920000Y-68050000D01*
X144810000Y-62050000D02*
X145570000Y-62050000D01*
X144810000Y-68050000D02*
X144810000Y-62050000D01*
X144810000Y-71107071D02*
X144810000Y-70710000D01*
X145570000Y-62050000D02*
X145570000Y-68050000D01*
X145570000Y-71107071D02*
X145570000Y-70710000D01*
X146460000Y-70710000D02*
X146460000Y-68050000D01*
X147350000Y-62050000D02*
X148110000Y-62050000D01*
X147350000Y-68050000D02*
X147350000Y-62050000D01*
X147350000Y-71107071D02*
X147350000Y-70710000D01*
X148110000Y-62050000D02*
X148110000Y-68050000D01*
X148110000Y-71107071D02*
X148110000Y-70710000D01*
X149000000Y-70710000D02*
X149000000Y-68050000D01*
X149890000Y-62050000D02*
X150650000Y-62050000D01*
X149890000Y-68050000D02*
X149890000Y-62050000D01*
X149890000Y-71107071D02*
X149890000Y-70710000D01*
X150650000Y-62050000D02*
X150650000Y-68050000D01*
X150650000Y-71107071D02*
X150650000Y-70710000D01*
X151600000Y-68050000D02*
X115920000Y-68050000D01*
X151600000Y-70710000D02*
X151600000Y-68050000D01*
%TO.C,C22*%
X122890580Y-83340000D02*
X122609420Y-83340000D01*
X122890580Y-84360000D02*
X122609420Y-84360000D01*
%TO.C,R1*%
X149262742Y-75677500D02*
X149737258Y-75677500D01*
X149262742Y-76722500D02*
X149737258Y-76722500D01*
%TO.C,D1*%
X131265000Y-92500000D02*
X131265000Y-94785000D01*
X131265000Y-94785000D02*
X132735000Y-94785000D01*
X132735000Y-94785000D02*
X132735000Y-92500000D01*
%TO.C,C23*%
X138690000Y-93459420D02*
X138690000Y-93740580D01*
X139710000Y-93459420D02*
X139710000Y-93740580D01*
%TO.C,C17*%
X120190000Y-92740580D02*
X120190000Y-92459420D01*
X121210000Y-92740580D02*
X121210000Y-92459420D01*
%TO.C,C2*%
X114790000Y-95159420D02*
X114790000Y-95440580D01*
X115810000Y-95159420D02*
X115810000Y-95440580D01*
%TO.C,C14*%
X120440580Y-89190000D02*
X120159420Y-89190000D01*
X120440580Y-90210000D02*
X120159420Y-90210000D01*
%TO.C,C24*%
X138690000Y-90359420D02*
X138690000Y-90640580D01*
X139710000Y-90359420D02*
X139710000Y-90640580D01*
%TO.C,C4*%
X111840580Y-91340000D02*
X111559420Y-91340000D01*
X111840580Y-92360000D02*
X111559420Y-92360000D01*
%TO.C,J4*%
X134870000Y-89070000D02*
X136200000Y-89070000D01*
X134870000Y-90400000D02*
X134870000Y-89070000D01*
X134870000Y-91670000D02*
X134870000Y-94270000D01*
X134870000Y-91670000D02*
X137530000Y-91670000D01*
X134870000Y-94270000D02*
X137530000Y-94270000D01*
X137530000Y-91670000D02*
X137530000Y-94270000D01*
%TO.C,C11*%
X129659420Y-81390000D02*
X129940580Y-81390000D01*
X129659420Y-82410000D02*
X129940580Y-82410000D01*
%TO.C,Y1*%
X115075000Y-91675000D02*
X116425000Y-91675000D01*
X115075000Y-93425000D02*
X116425000Y-93425000D01*
%TO.C,C21*%
X125340580Y-95840000D02*
X125059420Y-95840000D01*
X125340580Y-96860000D02*
X125059420Y-96860000D01*
%TO.C,R14*%
X125702500Y-89302258D02*
X125702500Y-88827742D01*
X126747500Y-89302258D02*
X126747500Y-88827742D01*
%TO.C,U5*%
X119552500Y-78842500D02*
X119552500Y-79317500D01*
X119552500Y-82062500D02*
X119552500Y-81587500D01*
X120027500Y-78842500D02*
X119552500Y-78842500D01*
X120027500Y-82062500D02*
X119552500Y-82062500D01*
X122297500Y-78842500D02*
X122772500Y-78842500D01*
X122297500Y-82062500D02*
X122472500Y-82062500D01*
X122772500Y-78842500D02*
X122772500Y-79317500D01*
X122772500Y-81587500D02*
X122772500Y-81822500D01*
X123012500Y-82392500D02*
X122532500Y-82392500D01*
X122772500Y-82062500D01*
X123012500Y-82392500D01*
G36*
X123012500Y-82392500D02*
G01*
X122532500Y-82392500D01*
X122772500Y-82062500D01*
X123012500Y-82392500D01*
G37*
%TO.C,R4*%
X111362742Y-96627500D02*
X111837258Y-96627500D01*
X111362742Y-97672500D02*
X111837258Y-97672500D01*
%TO.C,L2*%
X123546000Y-82769000D02*
X123546000Y-78461000D01*
X127854000Y-78461000D02*
X127854000Y-82769000D01*
%TO.C,R18*%
X121062742Y-85477500D02*
X121537258Y-85477500D01*
X121062742Y-86522500D02*
X121537258Y-86522500D01*
%TO.C,R17*%
X120177500Y-95462742D02*
X120177500Y-95937258D01*
X121222500Y-95462742D02*
X121222500Y-95937258D01*
%TO.C,R22*%
X112937258Y-78677500D02*
X112462742Y-78677500D01*
X112937258Y-79722500D02*
X112462742Y-79722500D01*
%TO.C,C15*%
X119803080Y-83342500D02*
X119521920Y-83342500D01*
X119803080Y-84362500D02*
X119521920Y-84362500D01*
%TO.C,J5*%
X105690000Y-75240000D02*
X106800000Y-75240000D01*
X105690000Y-76000000D02*
X105690000Y-75240000D01*
X105690000Y-76760000D02*
X105690000Y-77965000D01*
X105690000Y-76760000D02*
X106236529Y-76760000D01*
X105690000Y-77965000D02*
X106492470Y-77965000D01*
X107107530Y-77965000D02*
X107910000Y-77965000D01*
X107363471Y-76760000D02*
X107910000Y-76760000D01*
X107910000Y-76760000D02*
X107910000Y-77965000D01*
%TO.C,R20*%
X117137258Y-74477500D02*
X116662742Y-74477500D01*
X117137258Y-75522500D02*
X116662742Y-75522500D01*
%TO.C,U2*%
X133330000Y-76110000D02*
X133780000Y-76110000D01*
X133330000Y-76560000D02*
X133330000Y-76110000D01*
X133330000Y-82880000D02*
X133330000Y-83330000D01*
X133330000Y-83330000D02*
X133780000Y-83330000D01*
X140550000Y-76110000D02*
X140100000Y-76110000D01*
X140550000Y-76560000D02*
X140550000Y-76110000D01*
X140550000Y-82880000D02*
X140550000Y-83330000D01*
X140550000Y-83330000D02*
X140100000Y-83330000D01*
X133780000Y-83920000D02*
X133310000Y-84260000D01*
X133310000Y-83580000D01*
X133780000Y-83920000D01*
G36*
X133780000Y-83920000D02*
G01*
X133310000Y-84260000D01*
X133310000Y-83580000D01*
X133780000Y-83920000D01*
G37*
%TO.C,R16*%
X123377500Y-76827258D02*
X123377500Y-76352742D01*
X124422500Y-76827258D02*
X124422500Y-76352742D01*
%TO.C,R2*%
X116062742Y-89877500D02*
X116537258Y-89877500D01*
X116062742Y-90922500D02*
X116537258Y-90922500D01*
%TO.C,R11*%
X130437258Y-89027500D02*
X129962742Y-89027500D01*
X130437258Y-90072500D02*
X129962742Y-90072500D01*
%TO.C,R23*%
X109537258Y-78677500D02*
X109062742Y-78677500D01*
X109537258Y-79722500D02*
X109062742Y-79722500D01*
%TO.C,R12*%
X126877500Y-76362742D02*
X126877500Y-76837258D01*
X127922500Y-76362742D02*
X127922500Y-76837258D01*
%TO.C,C16*%
X131540580Y-83390000D02*
X131259420Y-83390000D01*
X131540580Y-84410000D02*
X131259420Y-84410000D01*
%TO.C,R13*%
X127277500Y-89302258D02*
X127277500Y-88827742D01*
X128322500Y-89302258D02*
X128322500Y-88827742D01*
%TO.C,D3*%
X147565000Y-89400000D02*
X147565000Y-91685000D01*
X147565000Y-91685000D02*
X149035000Y-91685000D01*
X149035000Y-91685000D02*
X149035000Y-89400000D01*
%TO.C,SW1*%
X149050000Y-79750000D02*
X149050000Y-84250000D01*
X151550000Y-85500000D02*
X153050000Y-85500000D01*
X153050000Y-78500000D02*
X151550000Y-78500000D01*
X155550000Y-84250000D02*
X155550000Y-79750000D01*
%TO.C,R24*%
X145787742Y-74177500D02*
X146262258Y-74177500D01*
X145787742Y-75222500D02*
X146262258Y-75222500D01*
%TO.C,R25*%
X145787742Y-75777500D02*
X146262258Y-75777500D01*
X145787742Y-76822500D02*
X146262258Y-76822500D01*
%TO.C,U4*%
X121985000Y-91405000D02*
X121985000Y-91880000D01*
X121985000Y-94625000D02*
X121985000Y-94150000D01*
X122460000Y-91405000D02*
X121985000Y-91405000D01*
X122460000Y-94625000D02*
X121985000Y-94625000D01*
X124730000Y-91405000D02*
X125205000Y-91405000D01*
X124730000Y-94625000D02*
X124905000Y-94625000D01*
X125205000Y-91405000D02*
X125205000Y-91880000D01*
X125205000Y-94150000D02*
X125205000Y-94385000D01*
X125445000Y-94955000D02*
X124965000Y-94955000D01*
X125205000Y-94625000D01*
X125445000Y-94955000D01*
G36*
X125445000Y-94955000D02*
G01*
X124965000Y-94955000D01*
X125205000Y-94625000D01*
X125445000Y-94955000D01*
G37*
%TO.C,D2*%
X119815000Y-74265000D02*
X119815000Y-75735000D01*
X119815000Y-75735000D02*
X122100000Y-75735000D01*
X122100000Y-74265000D02*
X119815000Y-74265000D01*
%TO.C,L1*%
X126046000Y-95304000D02*
X126046000Y-90996000D01*
X130354000Y-90996000D02*
X130354000Y-95304000D01*
%TO.C,C9*%
X136240000Y-87140580D02*
X136240000Y-86859420D01*
X137260000Y-87140580D02*
X137260000Y-86859420D01*
%TO.C,R19*%
X133077500Y-92937258D02*
X133077500Y-92462742D01*
X134122500Y-92937258D02*
X134122500Y-92462742D01*
%TO.C,C18*%
X117690000Y-80240580D02*
X117690000Y-79959420D01*
X118710000Y-80240580D02*
X118710000Y-79959420D01*
%TO.C,R15*%
X125177500Y-76827258D02*
X125177500Y-76352742D01*
X126222500Y-76827258D02*
X126222500Y-76352742D01*
%TO.C,C1*%
X116490000Y-95159420D02*
X116490000Y-95440580D01*
X117510000Y-95159420D02*
X117510000Y-95440580D01*
%TO.C,R3*%
X133077500Y-89837258D02*
X133077500Y-89362742D01*
X134122500Y-89837258D02*
X134122500Y-89362742D01*
%TO.C,R21*%
X150562742Y-89802500D02*
X151037258Y-89802500D01*
X150562742Y-90847500D02*
X151037258Y-90847500D01*
%TO.C,Y2*%
X113100000Y-92800000D02*
X109100000Y-92800000D01*
X113100000Y-96100000D02*
X113100000Y-92800000D01*
%TO.C,C19*%
X123840580Y-89155000D02*
X123559420Y-89155000D01*
X123840580Y-90175000D02*
X123559420Y-90175000D01*
%TO.C,C12*%
X142159420Y-74890000D02*
X142440580Y-74890000D01*
X142159420Y-75910000D02*
X142440580Y-75910000D01*
%TO.C,U3*%
X140215000Y-91500000D02*
X140215000Y-89300000D01*
X140215000Y-91500000D02*
X140215000Y-93700000D01*
X146985000Y-91500000D02*
X146985000Y-89300000D01*
X146985000Y-91500000D02*
X146985000Y-93700000D01*
X140915000Y-95690000D02*
X140435000Y-95690000D01*
X140675000Y-95360000D01*
X140915000Y-95690000D01*
G36*
X140915000Y-95690000D02*
G01*
X140435000Y-95690000D01*
X140675000Y-95360000D01*
X140915000Y-95690000D01*
G37*
%TO.C,J1*%
X105065000Y-80920000D02*
X106770000Y-80920000D01*
X105065000Y-90080000D02*
X105065000Y-80920000D01*
X106770000Y-90080000D02*
X105065000Y-90080000D01*
X108780000Y-90080000D02*
X110700000Y-90080000D01*
X110700000Y-80920000D02*
X108780000Y-80920000D01*
%TD*%
M02*
